<svg viewBox="0 0 219.26 290.37" xmlns="http://www.w3.org/2000/svg">
  <path d="M31.03 288.5c-.5-1.37-.93-2.94-.96-3.48-.08-1.5-3.47-1.83-5.1-.48-.8.67-1.45 2.1-1.45 3.2 0 1.6-.28 1.78-1.4.84-1.2-1-1.2-1.58.06-4.1.8-1.6 1.88-3.2 2.38-3.5s1.68-2.2 2.63-4.2c1.26-2.67 1.4-3.75.52-4.04-1.78-.6-1.45-2.93.52-3.68 1.48-.57 1.5-.8.25-1.63-1.24-.8-1.02-1.37 1.27-3.4 2.6-2.3 3.67-4.67 2-4.4-2.03.3-2.07-.3-.13-2.24 1.66-1.68 1.83-2.3.8-2.95-1.1-.67-1.05-1.16.25-2.64.86-.98 2.08-4.5 2.7-7.8s2.18-10.78 3.47-16.63c1.46-6.66 2.18-12.64 1.92-16-.35-4.44.93-21.15 2.05-26.87.16-.82.67-3.75 1.13-6.5 1.03-6.2 3.68-12.47 6.16-14.63 1.03-.9 5.03-3 8.88-4.65 5.65-2.43 9.02-3.14 17.5-3.7 11.4-.73 18-2.04 18-3.55 0-.53.67-.97 1.5-.97 2.14 0 1.86-1.75-.4-2.47-1.05-.33-4.9-.62-8.6-.65-5.95-.05-8.97-.77-16-3.84-11.05-4.82-16.35-7-18.2-7.53-2.32-.63-2.9.32-7.73 12.5-1 2.48-2.18 5.27-2.66 6.2s-1.13 3.2-1.43 5-1.27 4.86-2.16 6.76c-1.04 2.22-1.6 6-1.54 10.5.05 5.72-.14 6.62-1 4.8-1.6-3.32-2.26-2.8-3.7 2.8-.7 2.8-1.92 6.32-2.68 7.83s-1.55 4.73-1.77 7.14-.9 4.55-1.5 4.76-1.13 1.93-1.13 3.85c0 2.06-.4 3.22-1 2.85-.6-.36-1.03.93-1.08 3.2-.04 2.1-.3 3.24-.6 2.55-.94-2.36-2.32-.13-2.32 3.76 0 2.67-.55 4.22-1.75 4.9-1.48.84-1.56 1.3-.5 3.03.7 1.13 1.25 2.8 1.25 3.73 0 1.45-.34 1.38-2.32-.48-2.32-2.2-5.68-2.95-5.68-1.28 0 1.34-3.2 2.3-4.23 1.27-.54-.53.75-2.2 3.15-4.1 4.12-3.28 5.3-6.07 2.57-6.07-2.5 0-1.7-1.85 1.5-3.5 3.4-1.75 4.04-3.58 1-2.8-2.8.75-2.5-.7.75-3.46 2.52-2.14 2.56-2.28.5-1.72-3.36.92-2.74-1.2.9-3.1 2.44-1.25 2.83-1.82 1.74-2.52-1.12-.74-.97-1.24.83-2.65 2.13-1.68 6.2-12.52 6.3-16.75.03-1.1.7-2.87 1.52-3.94s1.47-3.23 1.47-4.8c0-2.96 2.43-11.92 4.06-14.98.5-.95 1.88-4.48 3.05-7.86s2.74-7.32 3.5-8.77 1.38-3 1.38-3.46 1.48-3.05 3.27-5.78c3.6-5.5 6.98-7.07 13.43-6.2 3.67.48 16.77 6.6 17.83 8.3 1.17 1.9 7.84 3.17 13.07 2.52 4.68-.6 5.42-.98 5.45-2.86.02-1.2.68-3.3 1.47-4.68 2.18-3.8 1.84-4.64-2.6-6.42-2.36-.94-4.32-2.48-4.62-3.6-.28-1.1-.98-1.98-1.56-1.98-1.4 0-5.9-5.13-10.48-11.94-2.06-3.05-3.97-5.78-4.26-6.06-1.74-1.68-10.25-20.9-10.35-23.4-.07-1.65-.8-3.77-1.63-4.7s-3.98-4.94-7-8.9-6.5-8.42-7.75-9.86-2.25-2.95-2.25-3.34-1.58-1-3.5-1.36c-3.33-.63-4.78-2.84-2.38-3.64.62-.2-2.86-4.3-7.72-9.1-6.16-6.05-9.58-8.7-11.25-8.7-1.9 0-2.16-.28-1.28-1.34 1.42-1.72.45-2.65-2.8-2.67-2.03-.02-2.26-.23-1.08-1 1.25-.8 1.17-1-.5-1.1-1.1-.07-2.56-.06-3.25.03s-1.25-.27-1.25-.8.56-1.17 1.25-1.42c2.46-.9-1.1-3.07-5.16-3.13-5.5-.1-6.05-1.26-1.03-2.25 3.87-.76 4.25-1.12 4.6-4.25.43-3.96.8-4.52 2.32-3.58.6.36.83 1.52.5 2.55-.83 2.62 1.34 6.53 2.8 5.06 1.73-1.7 2.7-1.3 2.8 1.15.04 1.24.3 1.7.58 1 .76-1.88 2.34-1.5 2.34.57 0 1 1.53 3.54 3.4 5.64 2.9 3.28 3.46 3.55 3.83 1.93.3-1.3.8-.55 1.64 2.35.65 2.34 1.64 4.25 2.18 4.25s3.53 2.5 6.65 5.58c4.48 4.4 5.36 5.77 4.23 6.48-1.08.68-.77.92 1.2.93s3.95 1.5 7.76 5.9c2.8 3.23 5.1 6.16 5.1 6.5 0 .58 4.5 7.6 11 17.1 1.5 2.2 5.07 8.95 7.93 15s5.96 12.58 6.88 14.5 2.93 4.98 4.44 6.8 2.75 3.66 2.75 4.13c0 1.16 2.95 2.22 4.14 1.5.6-.38.55-1.1-.13-1.9-1.8-2.18-1.38-15.53.6-19.53 2.13-4.25 7.35-10 9.1-10 .7 0 1.3-.45 1.3-1s-2.42-1-5.37-1c-4.43 0-5.82-.44-7.94-2.57-1.42-1.4-2.84-3.8-3.17-5.28-.7-3.26 1.6-8.3 5.03-11.02 3.22-2.53 3.1-3.17-1.25-6.13-11.57-7.87-15.8-12.13-19.6-19.74C66.8 29.8 54.34 16.8 44.9 11.3c-6.96-4.06-8.24-6.8-3.2-6.8 3.3 0 12.78 5.62 18.87 11.18 3.63 3.3 9.95 11.86 9.95 13.47 0 .74.37 1.35.82 1.35s2.3 3.15 4.1 7c2.86 6.1 4 7.43 8.93 10.47 3.1 1.92 7.4 5.03 9.53 6.92l3.9 3.42 4.05-3.9c2.24-2.16 4.45-3.92 4.92-3.92s1.97 1.13 3.34 2.5 2.7 2.5 2.96 2.5 4.33-2.92 9.07-6.5 8.97-6.5 9.4-6.5c.73 0 3.1-4 6.8-11.5 1.72-3.5 8.13-13.52 9.64-15.07.58-.6 2.47-2.7 4.2-4.68 7.25-8.27 19.85-14.22 19.85-9.38 0 1.2-2.16 3.16-6.2 5.6-5.3 3.2-18.26 15.2-18.32 16.95-.02.32-2.27 4.18-5 8.57s-4.98 8.7-4.98 9.56c0 1.97-3.12 4.8-9 8.2-2.48 1.43-6.08 3.98-8 5.66l-3.5 3.06 2.74 2.1c4.52 3.43 7.48 11.54 5.57 15.23-1.42 2.74-6.9 5.7-10.56 5.7-4.12 0-4.3 2.13-.4 4.9 4.7 3.34 7.3 10.88 7.34 21.15.04 10.4.9 10.7 6.44 2.34 3.6-5.46 6.55-8.45 4.47-4.57-.6 1.13-1.54 2.34-2.1 2.68s-.98 1.1-.98 1.7c0 3.64 11.26-13.54 12.46-19.04.38-1.72 1.1-3.4 1.62-3.7s.9-1.56.86-2.77c-.03-1.4-.78-.4-2.07 2.8-2.6 6.4-4.36 8.28-3.36 3.54.4-1.9 1.1-4.16 1.54-5s1.8-3.8 3.02-6.54c4.3-9.72 5.43-12 6.17-12.33.4-.18.75-.73.75-1.22s2.02-4 4.5-7.84 4.5-7.4 4.5-7.96 1.24-1.77 2.75-2.67 4.23-3.65 6.05-6.1 3.66-4.2 4.1-3.93c.8.5 4.45-3.1 7.06-6.94.75-1.1-.5.03-2.75 2.5-5.18 5.66-5.5 4.2-.43-1.93 2.2-2.64 3.72-5.52 3.64-6.83-.1-1.35.36-2.16 1.12-2 1.73.36 5.46-4.08 5.46-6.5 0-1.32.48-1.77 1.5-1.37 1.1.42 1.5-.13 1.5-2 0-1.8.42-2.42 1.4-2.04 2.5.96 4.9-2.85 4.2-6.67-.5-2.57-.27-3.57.88-4 1.15-.45 1.52.13 1.52 2.4 0 2.53.47 3.1 3 3.6 3.04.6 4.2 2.34 1.55 2.34-.8 0-2.7 1.1-4.25 2.43-2.58 2.24-2.65 2.48-.92 3.16 1.64.63 1.45.94-1.5 2.52-2.43 1.3-2.84 1.8-1.46 1.84 1.7.04 1.48 1.4-.25 1.63-1.9.24-4.18 1.76-4.18 2.8 0 .63-2.14 3.4-4.75 6.17-7.83 8.26-15.77 17.77-15.5 18.6.12.42-.78 1.82-2 3.1s-2.93 3.4-3.75 4.66c-.83 1.27-2.23 3.27-3.12 4.44-4.57 6.04-9.76 15.95-11.85 22.63-1.3 4.13-2.68 7.95-3.1 8.5s-1.15 2.58-1.68 4.5c-1.53 5.63-9.9 17.87-13.78 20.15-2.84 1.67-3.48 2.65-3.48 5.3 0 3.62-2.13 6.06-6.2 7.07l-2.67.67 2.03 3.9c1.82 3.47 2.45 3.9 5.75 3.9 2.04 0 4.56.63 5.6 1.4 1.68 1.22 2.6 1.1 7.42-1.04 3.03-1.34 6.2-3.03 7.04-3.75 2.1-1.8 18.33-8.6 20.53-8.6 2.38 0 8.5 4.72 8.5 6.55 0 .8.4 1.45.88 1.45s1.83 2 2.98 4.43 2.54 4.7 3.1 5.05 1.04 1.48 1.04 2.5.6 2.48 1.32 3.2 2.4 4.36 3.74 8.07 2.76 6.75 3.18 6.75c1.15 0 .9 3.8-.3 4.53-.65.4-.7 1.08-.1 1.8.5.65 1.26 2.75 1.66 4.67.4 1.93 1.05 3.95 1.45 4.5s1.23 2.35 1.85 4 1.68 4.35 2.34 6 1.23 3.45 1.28 4 1.1 1.45 2.33 2c2.62 1.14 2.96 2.5.63 2.5-1.33 0-1.4.28-.38 1.5.68.83 2.1 1.5 3.12 1.5s1.88.66 1.88 1.47c0 .95-.58 1.25-1.64.84-2.6-.98-1.1 2 1.72 3.44 2.16 1.1 2.2 1.24.42 1.27-1.9.05-1.88.14.3 1.82 1.38 1.06 2.06 2.38 1.7 3.3-1.04 2.74 1.23 6.88 3.77 6.88 1.27 0 2.8-.47 3.36-1.04.72-.72 1.42-.58 2.3.46 1.82 2.2.55 3.38-3.67 3.38-2.5 0-4.1.58-4.77 1.72-2.17 3.68-4.37 5.95-5.1 5.24-.4-.4.02-1.57.93-2.58s1.65-2.7 1.63-3.75c-.05-2.48-4.97-10.57-4.98-8.18 0 .97-.42 1.75-.94 1.75s-.67-1.65-.33-3.75c.55-3.4.45-3.62-1.06-2.37-1.52 1.23-1.68 1-1.68-2.3 0-2.04-.4-3.45-.9-3.14-1.17.73-2.2-2.02-1.46-3.94.3-.82.07-1.5-.53-1.5s-1.1-.97-1.1-2.17c0-2.33-4.2-15.22-6.73-20.6-1.4-3.02-1.63-3.13-2.87-1.5-1.26 1.66-1.35 1.63-1.38-.42-.02-1.2.37-2.42.86-2.73.9-.55-.75-6.42-3.46-12.3-.82-1.77-2.1-4.92-2.85-7-2.18-6.04-7.38-16.55-9.53-19.27l-2-2.5-11.95 6.25c-6.58 3.43-13.68 6.52-15.78 6.85s-4.16.8-4.56 1.06-2.65.68-4.98.96c-10.84 1.3-6.18 5.38 6.15 5.38 8.3 0 20.72 2.75 27.87 6.17 7.43 3.56 10.66 7.48 12.64 15.33.97 3.85 2.14 7.9 2.6 9 1.36 3.2 3.96 20.35 3.96 26.07 0 4.57 1.5 11.23 5 22 .55 1.7 1 3.65 1 4.35s.63 2.7 1.4 4.43 1.66 3.83 2 4.65c.32.83.97 2.18 1.44 3 2.52 4.46 3.17 6.18 2.64 7.04-.33.53.1 1.96.96 3.18s1.56 2.97 1.56 3.88 1 2.37 2.25 3.24c1.92 1.35 2.03 1.72.75 2.6-1.33.9-1.33 1.33.03 3.8 1.27 2.3 2.37 2.85 6.42 3.26 4.32.45 4.7.66 3.2 1.88-1.04.86-2.92 1.18-4.98.84-2.9-.46-3.7-.08-6.05 2.88-1.5 1.87-3.37 3.4-4.17 3.4-2.03 0-1.82-1.36.54-3.5 3.52-3.18 1.78-10.2-2.2-8.93-1.9.6-2.05.36-1.55-2.73.34-2.12.03-4.1-.85-5.3-.77-1.06-1.4-3.18-1.4-4.73 0-2.88-1.38-3.77-2.42-1.55-.32.7-.34-.43-.04-2.48.4-2.82.22-3.6-.77-3.23s-1.3-.95-1.3-5.4c0-3.22-.5-6.5-1.13-7.25-1.15-1.45-4.35-13.3-4.35-16.15 0-.9-.47-2.86-1.05-4.37l-1.05-2.76-2.42 3.94c-2.8 4.6-3.3 2.55-.86-3.56 1.78-4.45 1.58-9.42-.97-24l-2.63-14.98s-1.8-7.23-2.63-8.14c-1.57-1.75-10.28-4.5-16.88-5.3-7.54-.96-21.3-3.55-23.8-4.5-1.37-.52-2.76-.68-3.1-.35s-2.42 0-4.65-.74c-3.87-1.3-4.17-1.23-6.6 1.2l-2.56 2.55 3.27 1.63c1.8.9 4.34 1.62 5.66 1.62 3.1 0 2.15 1.5-2.53 3.97-3.62 1.92-3.64 1.95-.9 2 5.5.08 14.54 7.8 18.58 15.8 2.63 5.24 3.3 9.9 3.22 22.48-.07 10.03-.32 11.48-3.08 17.24-1.65 3.46-3 6.68-3 7.15 0 1.45-6.47 7.97-10.6 10.72-2.18 1.43-4.75 3.96-5.73 5.62-1.94 3.25-3.17 3.77-3.98 1.66-.3-.74-2.25-2.15-4.36-3.14-8.63-4.04-14.12-8.54-17.65-14.46-1.9-3.23-3.8-6.93-4.2-8.22s-1.07-2.8-1.5-3.34-1.3-4.3-1.98-8.36c-1.7-10.2.2-25.07 3.82-30.14 3.76-5.25 7.5-8.48 12.85-11.12L104 168l-4.42-.5c-4.88-.55-6.46-2.4-2.87-3.37 1.26-.34 3.4-1.5 4.8-2.58 2.3-1.8 2.36-2.08.87-3.58-1.7-1.73-3.54-1.47-14.88 2.07-2.48.77-5.63 1.62-7 1.9-20.8 3.97-28.24 5.93-29.8 7.83-3.17 3.86-4.83 41.02-1.98 44.48.56.7.8 1.25.5 1.25s-.16 1.58.28 3.5c.88 3.9.8 4-1.97 2.3-1.07-.68-2.2-.96-2.52-.64s-.98 3.9-1.48 7.96-1.17 8.5-1.5 9.88c-1.85 7.75-2.4 12.36-1.85 15.17.52 2.6.36 3.06-.9 2.58-1.16-.44-1.42-.1-1.05 1.34.28 1.06.9 2.18 1.4 2.48 1.5.94.94 2.67-.68 2.04-.86-.33-1.3-.2-1 .3.8 1.3-.5 4.18-1.56 3.5-1.7-1.04-2.12 2.66-.5 4.45 1.82 2 2.14 4.13.62 4.13-.55 0-1-.48-1-1.08s-.56-.9-1.25-.67c-2.1.68-3.6 6.77-2.55 10.5.5 1.85.77 4.35.57 5.56-.34 2.14-.38 2.13-1.27-.3zm81.83-46.54c-.32-.85-.8-1.33-1.06-1.07s-.18.95.18 1.54c.98 1.6 1.56 1.28.88-.48zm-10.34-14.46c.02 1.03.26 1.14.77.34.4-.63 2.07-1.35 3.72-1.6 1.95-.28 1.18-.5-2.22-.6-4.38-.1-5.12.12-4.6 1.45.48 1.26.76 1.3 1.44.24s.85-1.04.88.16zm11-6.4c0-.2-.7-.65-1.55-.98-.9-.34-1.3-.17-.94.4.58.95 2.5 1.4 2.5.6zm-5.77-4.7c.52-.34.22-.9-.65-1.23-1.2-.46-1.56.03-1.5 2.12.04 1.58.3 2.1.65 1.2.3-.82 1-1.77 1.5-2.1zm-4.54-3.65c-.24-.96-.45-.17-.45 1.75s.2 2.72.46 1.75.26-2.53 0-3.5zm-57.28 1.5c-.96-2.93-1.2-4.98-1.42-12.25-.17-5.62-.24-5.78-1.08-2.5-1.1 4.25-.1 15.22 1.47 16.24 1.7 1.1 1.82.95 1.02-1.5zm45.1-.75c-.34-.55-.82-1-1.06-1s-.44.45-.44 1 .48 1 1.06 1 .78-.45.44-1zm9.98-3.75c-.57-3.52-.5-3.63.96-1.8 1.54 1.92 1.56 1.92 1.57 0 .02-1.62.18-1.7 1-.45.82 1.3.96 1.25.97-.25 0-1.04-.73-1.75-1.84-1.75-1.02 0-4.05-.3-6.73-.66l-4.86-.67 1.72 2.63c.94 1.45 1.72 3.37 1.72 4.28 0 1.25.6 1.5 2.5 1 1.44-.35 2.5-.18 2.5.4 0 .57.24 1.02.54 1.02s.28-1.68-.06-3.75zm-2.4-.66c-.05-1.07.2-1.66.52-1.33s.37 1.2.08 1.92c-.32.8-.55.55-.6-.6zm13.42 2.4c-.34-.55-.82-1-1.06-1s-.44.45-.44 1 .48 1 1.06 1 .78-.45.44-1zm69-9.25c-.4-2.88-1.05-5.62-1.48-6.07-.76-.8-.7.05.48 7.57.9 5.77 1.78 4.45 1-1.5zm-89.9 1.52c-.33-.33-.57.26-.52 1.32.05 1.15.28 1.4.6.6.3-.73.26-1.6-.08-1.93zm-2.4-.95c-.74-.3-1.6-.25-1.93.08s.25.57 1.3.52c1.17-.04 1.4-.28.6-.6zm12.22-3.56c-.3-.95-.2-2.3.26-3 .53-.83 1.04-.06 1.5 2.24.52 2.6.63 2.02.42-2.3-.18-3.85.1-5.64.8-5.37.72.27.98-1.08.75-3.9-.25-3.2-.7-4.15-1.75-3.75-.8.3-1.4-.08-1.4-.9 0-.8-.68-1.44-1.5-1.44s-1.5.82-1.5 1.83-.68 1.83-1.5 1.83-1.5.68-1.5 1.5-.7 1.5-1.54 1.5c-.9 0-1.42-.7-1.25-1.64.16-.9-.27-1.85-.96-2.1-1.72-.6-1.6 3.52.13 5.27.76.76 1.66 1.1 2 .76s.62-.1.62.54-.45 1.16-1 1.16-1 .68-1 1.5.55 1.4 1.23 1.25 1.37.88 1.54 2.25c.54 4.23 1 4.8 3.64 4.65 1.94-.1 2.42-.56 2-1.9zm-7.82-1.5c-.33-.32-.57.27-.52 1.33.05 1.15.28 1.4.6.6.3-.73.26-1.6-.08-1.93zm17.74 1.42c.36.36.6-.66.54-2.26-.07-1.83-.3-2.24-.58-1.1-.3 1.13-1.05 1.6-1.97 1.26-.82-.32-1.87-.58-2.34-.58s-1.04-.78-1.3-1.75-.4-.5-.35 1.03c.07 1.8.55 2.6 1.4 2.28.7-.27 1.27.22 1.27 1.1 0 1.22.3 1.33 1.34.47.74-.6 1.64-.8 2-.45zm-20.34-7.74c0-.58-.45-.78-1-.44s-1 .82-1 1.06.45.44 1 .44 1-.47 1-1.06zm-45.4-2.67c-.33-.33-.57.26-.52 1.32.05 1.15.28 1.4.6.6.3-.73.26-1.6-.08-1.93zm62.06-4.52c-.28-.68-.5-.12-.5 1.25s.22 1.94.5 1.25.28-1.8 0-2.5zm69.94-.48c-.33-.33-.57.26-.52 1.32.05 1.15.28 1.4.6.6.3-.73.26-1.6-.08-1.93zm-67.95-4.6c.1-.1-.9-.7-2.22-1.33s-2.18-.74-1.87-.24.08.9-.5.9-1.06.42-1.06.94c0 .74 4.87.52 5.65-.26zM36.07 166c.47-2 .37-2.66-.3-2-.54.55-1.3 2.35-1.7 4-.46 2-.36 2.67.3 2 .56-.55 1.32-2.35 1.7-4zm151.04-3.24c-1.08-1.1-1.83.64-1.05 2.45.74 1.72.8 1.72 1.2-.02.25-1 .18-2.1-.14-2.42zm-115.08-3.83l9-1.35-7.53.37c-4.15.2-9.1 1.1-11 1.97s-2.58 1.33-1.48 1 6.05-1.24 11-2zm76.9-4.44c-.55-.54-3.9-1.2-7.44-1.5l-6.46-.5 6.38 1.46c3.5.8 6.62 1.7 6.92 2s.76.3 1.05.03.08-.97-.46-1.5zm6.1 1c-2.78-1.2-4.74-1.2-4 0 .34.55 1.83.97 3.3.93 2.4-.06 2.48-.16.7-.93zm-30-4c-.34-.55-.82-1-1.06-1s-.44.45-.44 1 .48 1 1.06 1 .78-.45.44-1zm55.84-5.54c-.32-.85-.8-1.33-1.06-1.07s-.18.95.18 1.54c.98 1.6 1.56 1.28.88-.48zm-63.45-6.24c-.56-1.5-1-2.83-.95-2.97s.07-1.6.07-3.25c0-2.45-.4-3-2.25-2.97-1.9.03-2 .18-.62 1 1.03.6 1.9 2.98 2.33 6.47.38 3.04 1.1 5.28 1.57 4.98.5-.3.45-1.7-.14-3.26zm-43.88.78c0-.55-.48-1-1.06-1s-.78.45-.44 1 .82 1 1.06 1 .44-.45.44-1zm28-4.46c0-1.9.4-2.34 1.75-1.9 1.44.45 1.5.37.28-.48-1-.72-1.86-.72-2.75.02-1.5 1.26-1.72 4.82-.28 4.82.55 0 1-1.1 1-2.46zm49.44-2.43c-.57-.56-7.44 3.17-7.44 4.05 0 .38 1.77-.28 3.93-1.47s3.74-2.34 3.5-2.57zm-91.2.24c-.68-.28-1.8-.28-2.5 0s-.12.5 1.26.5 1.94-.22 1.25-.5zm100.95-5.02c-.72-.3-1.58-.25-1.9.08s.25.57 1.3.52c1.17-.04 1.4-.28.6-.6zm-45.68-9.32c.34-.55.17-1-.38-1s-1.28.45-1.62 1-.17 1 .38 1 1.28-.45 1.62-1zm-8.5-8.6c0-.84-.45-1.24-1-.9s-1 1.3-1 2.12c0 .83.45 1.22 1 .88s1-1.3 1-2.1zm5.46-.47c-.32-.5-1.56-.87-2.77-.8-1.68.08-1.78.2-.43.56.96.24 1.75.9 1.75 1.44s.46.7 1.02.35.75-1.05.44-1.57zm-2.86-9.66c-.33-.33-.57.26-.52 1.32.05 1.15.28 1.4.6.6.3-.73.26-1.6-.08-1.93zm-8.53-1.72c.5.3.92-.13.92-1 0-2.13 3.74-1.97 4.3.2.43 1.62.48 1.62.58-.06.07-1 .56-1.54 1.1-1.2.57.35.74-.05.4-.94-.4-1.02-.03-1.56 1.05-1.56 1.35 0 1.44-.36.52-2.08-.87-1.64-1.7-1.95-3.78-1.44-6.35 1.56-9.96 6.2-7.83 10.02 1.08 1.95 1.1 1.95 1.45-.26.2-1.25.76-2 1.27-1.7zm-26.96-7.22c-1.18-2.03-1.46-1.38-.5 1.14.35.9.84 1.4 1.1 1.15s0-1.3-.6-2.3zm41.88-.33c0-1.25-1.06-1.25-3 0-1.2.8-1.07.98.75 1 1.24 0 2.25-.45 2.25-1zm-5.5-3c-.34-.55-1.6-1-2.8-.98-1.8 0-1.92.2-.7.98 1.97 1.28 4.3 1.28 3.5 0zm-12.9-13.82c-.6-1 3-4.25 3.8-3.44.3.3-.2 1.16-1.17 1.88-1.6 1.22-1.55 1.32.54 1.35 1.56.02 2.6-.8 3.3-2.68.83-2.2 1.22-2.44 1.96-1.26.73 1.16.93 1 .94-.76.02-1.92-.38-2.15-2.86-1.65-1.64.33-3.17.1-3.56-.53-1.16-1.88-2.82-1.2-2.27.92.3 1.1-.12 2.68-.93 3.5-1.3 1.3-1.13 3.48.27 3.48.27 0 .27-.37 0-.82zm22.9-2.95c-.55-.4-1.34-1.16-1.75-1.65s-.75-.16-.75.76.78 1.66 1.75 1.65c1-.02 1.32-.35.75-.77zm-9.5-3.23c0-.55-.7-1-1.56-1s-1.28.45-.94 1 1.04 1 1.56 1 .94-.45.94-1zm5.93.1c-.04-.33-.42-1.48-.84-2.57-.7-1.8-.8-1.75-1.25.6-.33 1.7-.05 2.54.84 2.54.72 0 1.3-.26 1.25-.58zm46.45-17.65c.34-.9.17-1.3-.4-.94-.54.35-.98 1.05-.98 1.56 0 1.44.72 1.12 1.38-.6zm-29.38 52.1c0-.68 4.15-7.55 4.57-7.55.2 0-.1 1.02-.63 2.25s-1.25 3.04-1.58 4c-.54 1.52-2.38 2.54-2.38 1.3zm37.5-55.55c.34-.55 1.3-1 2.12-1 .82 0 1.22.45.88 1s-1.3 1-2.12 1c-.82 0-1.22-.45-.88-1z" fill="#9d9d9d"/>
  <path d="M31.03 288.5c-.5-1.37-.93-2.94-.96-3.48-.08-1.5-3.47-1.83-5.1-.48-.8.67-1.45 2.1-1.45 3.2 0 1.6-.28 1.78-1.4.84-1.2-1-1.2-1.58.06-4.1.8-1.6 1.88-3.2 2.38-3.5s1.68-2.2 2.63-4.2c1.26-2.67 1.4-3.75.52-4.04-1.78-.6-1.45-2.93.52-3.68 1.48-.57 1.5-.8.25-1.63-1.24-.8-1.02-1.37 1.27-3.4 2.6-2.3 3.67-4.67 2-4.4-2.03.3-2.07-.3-.13-2.24 1.66-1.68 1.83-2.3.8-2.95-1.1-.67-1.05-1.16.25-2.64.86-.98 2.08-4.5 2.7-7.8s2.18-10.78 3.47-16.63c1.46-6.66 2.18-12.64 1.92-16-.35-4.44.93-21.15 2.05-26.87.16-.82.67-3.75 1.13-6.5 1.03-6.2 3.68-12.47 6.16-14.63 1.03-.9 5.03-3 8.88-4.65 5.65-2.43 9.02-3.14 17.5-3.7 11.4-.73 18-2.04 18-3.55 0-.53.67-.97 1.5-.97 2.14 0 1.86-1.75-.4-2.47-1.05-.33-4.9-.62-8.6-.65-5.95-.05-8.97-.77-16-3.84-11.05-4.82-16.35-7-18.2-7.53-2.32-.63-2.9.32-7.73 12.5-1 2.48-2.18 5.27-2.66 6.2s-1.13 3.2-1.43 5-1.3 4.88-2.2 6.8c-1.05 2.27-1.6 5.96-1.55 10.5.07 5.64-.12 6.57-.98 4.75-1.56-3.32-2.23-2.8-3.67 2.82-.7 2.78-1.92 6.3-2.68 7.82s-1.55 4.73-1.77 7.14-.9 4.55-1.5 4.76-1.13 1.93-1.13 3.85c0 2.06-.4 3.22-1 2.85-.6-.36-1.03.93-1.08 3.2-.04 2.1-.3 3.24-.6 2.55-.94-2.36-2.32-.13-2.32 3.76 0 2.67-.55 4.22-1.75 4.9-1.48.84-1.56 1.3-.5 3.03.7 1.13 1.25 2.8 1.25 3.73 0 1.45-.34 1.38-2.32-.48-2.32-2.2-5.68-2.95-5.68-1.28 0 1.34-3.2 2.3-4.23 1.27-.54-.53.75-2.2 3.15-4.1 4.48-3.56 4.9-4.73 2.38-6.58-1.52-1.12-1.37-1.4 1.5-2.9 3.54-1.83 4.3-3.7 1.2-2.9-2.8.75-2.5-.7.74-3.46 2.52-2.14 2.56-2.28.5-1.72-3.36.92-2.74-1.2.9-3.1 2.44-1.25 2.83-1.82 1.74-2.52-1.12-.74-.97-1.24.83-2.65 2.13-1.68 6.2-12.52 6.3-16.75.03-1.1.7-2.87 1.52-3.94s1.47-3.23 1.47-4.8c0-2.96 2.43-11.92 4.06-14.98.5-.95 1.88-4.48 3.05-7.86s2.74-7.32 3.5-8.77 1.38-3 1.38-3.46 1.48-3.05 3.27-5.78c3.6-5.5 6.98-7.07 13.43-6.2 3.67.48 16.77 6.6 17.83 8.3 1.17 1.9 7.84 3.17 13.07 2.52 4.68-.6 5.42-.98 5.45-2.86.02-1.2.68-3.3 1.47-4.68 2.18-3.8 1.84-4.64-2.6-6.42-2.36-.94-4.32-2.48-4.62-3.6-.28-1.1-.98-1.98-1.56-1.98-1.4 0-5.9-5.13-10.48-11.94-2.06-3.05-3.97-5.78-4.26-6.06-1.74-1.68-10.25-20.9-10.35-23.4-.07-1.65-.73-3.7-1.46-4.55C59 72.6 51.1 62.4 46.5 56.25c-2.5-3.34-4.44-4.87-6.75-5.33-1.9-.37-3.25-1.25-3.25-2.1 0-1 .62-1.25 2.04-.8 1.12.35-2.36-3.67-7.74-8.94C24 32.4 20.32 29.5 18.65 29.5c-1.87 0-2.14-.28-1.26-1.34 1.42-1.72.45-2.65-2.8-2.67-2.03-.02-2.26-.23-1.08-1 1.25-.8 1.17-1-.5-1.1-1.1-.07-2.56-.06-3.25.03s-1.25-.27-1.25-.8.56-1.17 1.25-1.42c2.46-.9-1.1-3.07-5.16-3.13-5.5-.1-6.05-1.26-1.03-2.25 3.87-.76 4.25-1.12 4.6-4.25.43-3.96.8-4.52 2.32-3.58.6.36.83 1.52.5 2.55-.83 2.62 1.34 6.53 2.8 5.06 1.73-1.7 2.7-1.3 2.8 1.15.04 1.24.3 1.7.58 1 .76-1.88 2.34-1.5 2.34.57 0 1 1.53 3.54 3.4 5.64 2.9 3.28 3.46 3.55 3.83 1.93.3-1.3.8-.55 1.64 2.35.65 2.34 1.64 4.25 2.18 4.25s3.53 2.5 6.65 5.58c4.48 4.4 5.36 5.77 4.23 6.48-1.08.68-.77.92 1.2.93s3.95 1.5 7.76 5.9c2.8 3.23 5.1 6.16 5.1 6.5 0 .58 4.4 7.4 11 17.1 4.33 6.37 6.15 10.46 5.5 12.45-.3 1.02.55 4.25 1.93 7.2 1.37 2.95 2.5 4.86 2.53 4.26s-.6-2.4-1.36-4c-1.68-3.5-2.9-7.4-2.3-7.4.23 0 1.87 3.04 3.65 6.75l4.88 10.25s2.9 4.98 4.42 6.8 2.75 3.66 2.75 4.13c0 1.16 2.95 2.22 4.14 1.5.6-.38.55-1.1-.13-1.9-.6-.73-1.1-4.63-1.1-8.67-.02-9.37 2.87-16.33 6.4-15.34 1.66.47 1.84.37.73-.4-1.26-.85-1.2-1.28.4-3.06 1.03-1.13 2.47-2.06 3.2-2.06s1.36-.45 1.36-1-2.4-1-5.36-1c-4.43 0-5.82-.44-7.94-2.57-1.42-1.4-2.84-3.8-3.17-5.28-.7-3.26 1.6-8.3 5.03-11.02 3.22-2.53 3.1-3.17-1.25-6.13-11.57-7.87-15.8-12.13-19.6-19.74C66.8 29.8 54.34 16.8 44.9 11.3c-6.96-4.06-8.24-6.8-3.2-6.8 3.3 0 12.78 5.62 18.87 11.18 3.63 3.3 9.95 11.86 9.95 13.47 0 .74.37 1.35.82 1.35s2.3 3.15 4.1 7c2.86 6.1 4 7.43 8.93 10.47 3.1 1.92 7.4 5.03 9.53 6.92l3.9 3.42 4.05-3.9c2.24-2.16 4.45-3.92 4.92-3.92s1.97 1.13 3.34 2.5 2.7 2.5 2.96 2.5 4.33-2.92 9.07-6.5 8.97-6.5 9.4-6.5c.73 0 3.1-4 6.8-11.5C145.57 16.28 160.6 1.1 168.7.33c5.66-.55 4.3 2.8-2.85 7.13-5.47 3.3-18.3 15.1-18.35 16.87-.02.37-2.26 4.27-5 8.66s-4.98 8.7-4.98 9.56c0 1.7-3.5 5.3-6 6.18-2.4.85-14 9.67-14 10.65 0 .47 1.1 1.6 2.45 2.48 4.17 2.73 7.25 11.3 5.36 14.93-1.42 2.74-6.9 5.7-10.56 5.7-4.12 0-4.3 2.13-.4 4.9 4.7 3.34 7.3 10.88 7.34 21.15.04 10.4.9 10.7 6.44 2.34 3.6-5.46 6.55-8.45 4.47-4.57-.6 1.13-1.54 2.34-2.1 2.68s-.98 1.1-.98 1.7c0 2.08 3.02-1.48 7.5-8.85 2.47-4.08 4.5-7.87 4.5-8.43s.62-2.23 1.38-3.72 1.68-4.27 2.05-6.2c.66-3.43.63-3.42-1.38.86-1.13 2.4-2.05 4.9-2.05 5.56s-.7 2.08-1.55 3.14c-1.45 1.83-1.5 1.73-.87-1.52.37-1.9 1.04-4.16 1.48-5s1.8-3.8 3.02-6.54c2.8-6.32 5.33-11.86 5.72-12.47.17-.26.76.2 1.32 1 .78 1.13.87.98.4-.7-.42-1.52.7-4.17 3.94-9.16 2.5-3.86 4.54-7.45 4.54-7.98s1.24-1.77 2.75-2.75 3.34-2.62 4.07-3.63 1.67-1.63 2.1-1.37c.96.6 6.65-5.2 5.87-6-.3-.3-1.56.84-2.78 2.55s-2.45 2.9-2.72 2.6 2.14-3.78 5.37-7.8c3.64-4.5 5.83-8.16 5.75-9.56-.08-1.35.38-2.16 1.14-2 1.73.36 5.46-4.08 5.46-6.5 0-1.32.48-1.77 1.5-1.37 1.1.42 1.5-.13 1.5-2 0-1.8.42-2.42 1.4-2.04 2.56.98 4.9-2.85 4.17-6.8-.54-2.8-.35-3.53.87-3.53 1 0 1.55.92 1.55 2.53 0 2 .62 2.65 3 3.12 3 .6 4.2 2.35 1.63 2.35-.75 0-2.63 1-4.2 2.23-2.5 1.97-2.74 2-2.1.36.6-1.6.5-1.7-.85-.58-1.38 1.15-1.27 1.5 1.04 3l2.6 1.7-3.22 1.32c-2.8 1.17-2.97 1.42-1.3 2.08 1.04.4 1.56.83 1.15.94-4.05 1.05-5.75 2.1-5.75 3.58 0 .8-.68 1.7-1.5 2s-1.5.93-1.5 1.37-1.46 2.32-3.25 4.17c-6.07 6.3-14.25 16.22-14 17 .12.42-.78 1.82-2 3.1s-2.93 3.4-3.75 4.66c-.83 1.27-2.23 3.27-3.12 4.44-4.57 6.04-9.76 15.95-11.85 22.63-1.3 4.13-2.68 7.95-3.1 8.5s-1.15 2.58-1.68 4.5c-1.53 5.63-9.9 17.87-13.78 20.15-2.84 1.67-3.48 2.65-3.48 5.3 0 3.62-2.13 6.06-6.2 7.07l-2.67.67 2.03 3.9c1.82 3.47 2.45 3.9 5.75 3.9 2.04 0 4.56.63 5.6 1.4 1.68 1.22 2.6 1.1 7.42-1.04 3.03-1.34 6.2-3.03 7.04-3.75 2.1-1.8 18.33-8.6 20.53-8.6 2.38 0 8.5 4.72 8.5 6.55 0 .8.37 1.45.84 1.45s1.66 1.8 2.65 4 2.4 4.52 3.15 5.13 1.35 1.93 1.35 2.92.6 2.4 1.32 3.13 2.4 4.36 3.74 8.07 2.76 6.75 3.18 6.75c1.15 0 .9 3.8-.3 4.53-.65.4-.7 1.08-.1 1.8.5.65 1.26 2.75 1.66 4.67.4 1.93 1.05 3.95 1.45 4.5s1.23 2.35 1.85 4 1.68 4.35 2.34 6 1.23 3.45 1.28 4 1.1 1.45 2.33 2c2.56 1.12 2.98 2.5.75 2.5-2.72 0-1.56 2.04 1.5 2.65 1.65.33 3 1.2 3 1.95 0 .83-.62 1.1-1.64.7-2.6-.98-1.1 2 1.72 3.44 2.16 1.1 2.2 1.24.42 1.27-1.9.05-1.88.14.3 1.82 1.38 1.06 2.06 2.38 1.7 3.3-1.04 2.74 1.23 6.88 3.77 6.88 1.27 0 2.8-.47 3.36-1.04.72-.72 1.42-.58 2.3.46 1.82 2.2.55 3.38-3.67 3.38-2.5 0-4.1.58-4.77 1.72-2.17 3.68-4.37 5.95-5.1 5.24-.4-.4.02-1.57.93-2.58s1.65-2.7 1.63-3.75c-.05-2.48-4.97-10.57-4.98-8.18 0 .97-.42 1.75-.94 1.75s-.67-1.65-.33-3.75c.55-3.4.45-3.62-1.06-2.37-1.52 1.23-1.68 1-1.68-2.3 0-2.04-.4-3.45-.9-3.14-1.17.73-2.2-2.02-1.46-3.94.3-.82.07-1.5-.53-1.5s-1.1-.97-1.1-2.17c0-2.33-4.2-15.22-6.73-20.6-1.4-3.02-1.63-3.13-2.87-1.5-1.26 1.66-1.35 1.63-1.38-.42-.02-1.2.37-2.42.86-2.73.9-.55-.75-6.42-3.46-12.3-.82-1.77-2.1-4.92-2.85-7-2.45-6.8-7.78-17.57-9.76-19.68l-1.93-2.1-11.87 6.25c-6.53 3.43-13.56 6.5-15.6 6.84s-4.7.95-5.9 1.4-3.76.74-5.74.65-3.4.14-3.18.52-.06 1-.66 1.37c-2.4 1.48 4.47 3.46 12 3.46 8.28 0 20.7 2.75 27.86 6.17 7.43 3.56 10.66 7.48 12.64 15.33.97 3.85 2.14 7.9 2.6 9 1.36 3.2 3.96 20.35 3.96 26.07 0 4.57 1.5 11.23 5 22 .55 1.7 1 3.65 1 4.35s.63 2.7 1.4 4.43 1.66 3.83 2 4.65c.32.83.97 2.18 1.44 3 2.52 4.46 3.17 6.18 2.64 7.04-.33.53.1 1.96.96 3.18s1.56 2.97 1.56 3.88 1 2.37 2.25 3.24c1.92 1.35 2.03 1.72.75 2.6-1.33.9-1.33 1.33.03 3.8 1.27 2.3 2.37 2.85 6.42 3.26 4.32.45 4.7.66 3.2 1.88-1.04.86-2.92 1.18-4.98.84-2.9-.46-3.7-.08-6.05 2.88-1.5 1.87-3.37 3.4-4.17 3.4-2.03 0-1.82-1.36.54-3.5 3.47-3.14 1.8-10.2-2.14-8.95-1.86.6-1.98.3-1.54-3.95.26-2.53.12-4.37-.32-4.1-1 .62-2-1.92-2-5.08 0-2.56-1.44-3.26-2.42-1.17-.32.7-.34-.43-.04-2.48.4-2.82.22-3.6-.77-3.23s-1.3-.95-1.3-5.4c0-3.22-.5-6.5-1.13-7.25-1.15-1.45-4.35-13.3-4.35-16.15 0-.9-.47-2.86-1.05-4.37l-1.05-2.76-2.42 3.94c-2.8 4.6-3.3 2.55-.86-3.56 1.78-4.45 1.58-9.42-.97-24l-2.63-14.98s-1.8-7.23-2.63-8.14c-1.52-1.7-10.2-4.47-16.38-5.26-8.42-1.08-17.85-2.82-22.16-4.08-2.57-.76-4.93-1.1-5.25-.8s-2.4-.02-4.63-.75c-3.87-1.3-4.17-1.23-6.6 1.2l-2.56 2.55 3.27 1.63c1.8.9 4.34 1.62 5.66 1.62 3.1 0 2.15 1.5-2.53 3.97-3.62 1.92-3.64 1.95-.9 2 5.5.08 14.54 7.8 18.58 15.8 2.63 5.24 3.3 9.9 3.22 22.48-.07 10.03-.32 11.48-3.08 17.24-1.65 3.46-3 6.68-3 7.15 0 1.48-6.5 8-10.84 10.86-2.3 1.53-4.17 3.05-4.18 3.4s-.9 1.73-1.95 3.1c-1.77 2.3-2.04 2.36-3.23.83-.72-.92-3.97-3.1-7.23-4.83-9.75-5.2-12-7.45-16.8-16.78-6.07-11.77-7.47-19.9-5.73-33.08.96-7.33 1.86-10.47 3.77-13.14 3.76-5.25 7.5-8.48 12.85-11.12L104 168l-4.42-.5c-4.88-.55-6.46-2.4-2.87-3.37 1.26-.34 3.4-1.5 4.8-2.58 2.3-1.8 2.36-2.08.87-3.58-1.72-1.73-1.27-1.8-15.38 2.06-10.44 2.84-13.84 3.63-21.67 5-4.44.78-9.7 2.22-11.7 3.2-3.5 1.7-3.68 2.05-4.97 9.77-1.73 10.4-1.83 34-.15 36.02.68.82 1 1.48.72 1.48s-.17 1.58.27 3.5c.88 3.9.8 4-1.97 2.3-1.07-.68-2.2-.96-2.52-.64s-.98 3.9-1.48 7.96-1.17 8.5-1.5 9.88c-1.85 7.75-2.4 12.36-1.85 15.17.53 2.64.37 3.07-.97 2.55-1.2-.46-1.45-.18-1 1.08.33.94 1.04 2.28 1.6 2.98s.62 1.6.2 2-1 .16-1.23-.53-.88-1.25-1.4-1.25c-.58 0-.6.68-.05 1.75 1.05 2.04.42 4.53-.92 3.7-1.72-1.07-2.16 2.62-.53 4.42 1.82 2 2.14 4.13.62 4.13-.55 0-1-.48-1-1.08s-.56-.9-1.25-.67c-2.1.68-3.6 6.77-2.55 10.5.5 1.85.77 4.35.57 5.56-.34 2.14-.38 2.13-1.27-.3zm160.5-41.56c0-.24-.7-.44-1.57-.44s-1.28.46-.93 1.02c.57.92 2.5.48 2.5-.58zm-78.44-6.2c-.34-.33-1.17-.05-1.84.62-.97.97-.9 1.42.27 2.16 1.06.66 1.6.48 1.83-.62.18-.85.06-1.83-.27-2.16zM40.5 238.5c0-.55-.45-1-1-1s-1 .45-1 1 .45 1 1 1 1-.45 1-1zm147.6-1.6c-.36-.92-.87-1.46-1.15-1.18-.27.27-.2 1.26.15 2.18s.87 1.47 1.15 1.2c.27-.28.2-1.27-.15-2.2zm-76.35-3.06c-.7-.28-1.8-.28-2.5 0s-.13.5 1.25.5 1.94-.22 1.25-.5zm-9.2-5.84c.7 1.7.82 1.74.88.25.05-1.33.94-1.75 3.74-1.75 5.4 0 3.22-1.2-2.73-1.5-4.78-.23-5.08-.1-4.55 1.88.32 1.17.64 2.57.72 3.12s.37-.12.64-1.5c.46-2.33.54-2.36 1.3-.5zm-4.05-1.88c0-1.37-4.57-2.6-6.84-1.84-2.45.82-1.02 2.15 1.72 1.6 1.63-.33 3.17-.1 3.56.52.92 1.5 1.56 1.4 1.56-.28zm10-5.68c0-.58-.45-.78-1-.44s-1-.2-1-1.2.9-2.38 2-3.06c1.7-1.07 2.02-1 2.12.5.06.97.43.4.8-1.24.8-3.37.35-5.5-1.13-5.5-.54 0-.74.66-.43 1.47s.13 1.74-.4 2.06-.95-.24-.95-1.25c0-1.18-.72-1.85-2-1.85-1.12 0-1.85.47-1.64 1.04s.9.92 1.5.78 1.13.77 1.12 2c0 1.82-.2 1.97-.98.75-.72-1.1-.97-.5-1 2.3 0 2.3-.4 3.57-1 3.2-.55-.34-.97-3.63-.92-7.3s.3-6.13.58-5.45c.6 1.47 4.34 1.7 4.34.27 0-1.04-1.38-1.44-9.73-2.85-2.88-.5-5.47-.65-5.76-.36-1.13 1.15-.44 7.03.98 8.2.82.7 1.54 1.98 1.6 2.88.06.93.44.55.9-.88l.8-2.5.1 2.75c.05 1.52.54 2.75 1.07 2.75s.75-1.46.48-3.25c-.4-2.57-.3-2.83.45-1.25 1.12 2.36 1.4 8.47.32 7-1.2-1.62-3.23-1.62-3.23 0 0 1.17 1.33 1.5 6 1.5 3.56 0 6-.43 6-1.06zm-6.7-4.44c0-2.75.2-3.75.42-2.23s.22 3.77-.02 5-.42-.02-.4-2.77zm-8.3-5.94c0-.85.45-1.56 1-1.56s1 .43 1 .94-.45 1.22-1 1.56-1-.08-1-.94zm20 10c-1.36-.76-2.87-1.14-3.35-.84-1.2.74 1.4 2.26 3.85 2.23 1.77 0 1.7-.18-.5-1.4zm-19.07-3.9c-.07-2.06-.1-2.06-.84-.2-.68 1.78-.82 1.7-1.44-.74-.37-1.5-1.3-2.72-2.03-2.72-1.1 0-1.04.67.27 3.36 1.75 3.63 4.16 3.8 4.05.3zm25.57.34c-.34-.55-.82-1-1.06-1s-.44.45-.44 1 .48 1 1.06 1 .78-.45.44-1zm-74-3.75c-.74-3.6-1.16-7.4-1.53-13.75l-.2-3-.88 3.5c-1.98 7.75-.74 17 2.3 17 .7 0 .8-1.27.3-3.75zm40.68-2.46c-.72-.73-1.18-.8-1.18-.16 0 1.33 1.18 2.5 1.85 1.85.28-.3-.02-1.06-.67-1.7zm28.5-.25c-1.92-1.92-2.68-1.96-2.68-.12 0 .8.8 1.6 1.75 1.82 2.47.55 2.72.1.94-1.7zm-23.93-7.13c-1.08-1.07-5.1-.73-5.52.47-.28.78-.04 1.1.55.74 1.5-.93 4.22.34 4.22 1.97 0 .78-.45 1.4-1 1.4-1.44 0-1.23 2.76.25 3.26.83.28 1.35-.9 1.56-3.52.17-2.17.15-4.1-.06-4.32zm89.8-.67c-.37-3.43-1.17-6.7-1.76-7.25-.73-.7-.87-.25-.43 1.5.34 1.38.63 4.64.64 7.25 0 2.86.47 4.75 1.15 4.75.8 0 .92-1.86.43-6.25zm-69.55 3.7c0-.25-.45-.45-1-.45s-1 .48-1 1.06.45.78 1 .44 1-.8 1-1.06zm-10.25-5.97c-.27-1.4-.1-2.76.38-3.06s.94.73 1.02 2.27c.1 1.94.36 1.42.85-1.7.6-3.77.72-3.98.85-1.3.16 3.36 1.63 5.18 2.48 3.06.28-.7.55-.36.6.74.08 1.67.26 1.76 1.08.5.88-1.33 1.1-1.33 1.97 0 1 1.52 1.27.98 1.27-2.5 0-5.3-.38-7.5-1.3-7.5-.65 0-.8 1.32-.38 3.5.42 2.3.26 3.5-.47 3.5-.6 0-1.1-.45-1.1-1s-.57-.88-1.26-.75c-.74.15-1.34-.96-1.47-2.75-.12-1.65.03-2.43.33-1.75 1.94 4.38 2.8-5.4.9-10-.57-1.37-.22-1.75 1.63-1.76l2.36-.03-2.5-1.26c-1.36-.68-2.64-2.14-2.84-3.22-.55-3.03-1.83-3.84-2.43-1.54-.3 1.14-.2 1.85.25 1.58s1.03.43 1.33 1.55c.44 1.68.28 1.84-.9.87-1.08-.9-1.4-.9-1.4 0 0 .65-.43.92-.94.6s-1.14.23-1.4 1.2c-.35 1.38-.47 1.28-.56-.43-.17-3.18-2.12-3.92-2.12-.8 0 1.66-.4 2.37-1.1 1.94-.75-.46-.9 0-.44 1.43.42 1.32.04 2.96-1.02 4.37-1.1 1.5-1.5 1.67-1.1.53s-.14-2.12-1.53-2.86c-2-1.07-2.08-.95-1.56 2.9.45 3.37.23 4.1-1.36 4.52-1.03.27-1.88 1.02-1.88 1.65s.45.87 1 .53c1.42-.88 1.24.86-.25 2.36-1 1-.92 1.14.43.62 1.28-.48 1.75.02 2 2.12.35 3.04 2.82 4.6 2.82 1.8 0-1.66.1-1.66 1.35.08.82 1.1 2 1.6 2.97 1.23.9-.33 1.88-.18 2.2.35 1.1 1.77 1.72.97 1.23-1.57zm-9.67-1.9c-.05-1.05.2-1.64.52-1.3s.37 1.2.08 1.9c-.32.8-.55.57-.6-.6zm2-2c-.05-1.05.2-1.64.52-1.3s.37 1.2.08 1.9c-.32.8-.55.57-.6-.6zm-3.08-2.58c0-1.86.27-2.13 1.2-1.2s.93 1.47 0 2.4-1.2.67-1.2-1.2zm14.67-8.66c-.38-.37-.68-1.8-.68-3.17 0-3.1 1.17-2.13 1.54 1.3.3 2.7.2 2.93-.87 1.87zm8.92 12.93c-.33-.33-.57.26-.52 1.32.05 1.15.28 1.4.6.6.3-.73.26-1.6-.08-1.93zm-.48-4.53c-.98-.98-1.1-.87-.56.56.38.98.94 1.54 1.25 1.23s0-1.1-.7-1.8zM45.5 189.1c.03-2.8-1.26-1.08-1.6 2.14-.22 2.04-.05 2.36.65 1.25.5-.83.95-2.36.95-3.4zm133.68 1.65c-2.46-11.85-3.08-14.25-3.66-14.25-.36 0-.07 2.82.65 6.25s1.32 7.27 1.33 8.5.52 2.25 1.13 2.25c.7 0 .9-1.05.55-2.75zm-69.06-6.98c-.33-.33-.57.26-.52 1.32.05 1.15.28 1.4.6.6.3-.73.26-1.6-.08-1.93zm3.4-9.77c-.7-.82-1.4-1.5-1.6-1.5s-.08.68.24 1.5 1.03 1.5 1.6 1.5c.57 0 .48-.63-.24-1.5zM37.6 162.34c3.7-10.78 5.06-16.23 2.7-10.84-.6 1.38-1.18 2.73-1.28 3-.1.28-.74 1.85-1.44 3.5-3.67 8.67-6.25 18.03-4.48 16.25.32-.32 2.34-5.68 4.5-11.9zm80.1 8.48c-.72-.3-1.58-.25-1.9.08s.25.57 1.3.52c1.17-.04 1.4-.28.6-.6zm-10.18-1.38c0-.58-.45-.78-1-.44s-1 .82-1 1.06.45.44 1 .44 1-.47 1-1.06zm80.64-7.63c-1.2-1.2-2.93 1.5-2.17 3.4.67 1.65.82 1.62 1.78-.46.58-1.24.75-2.56.38-2.93zM72.1 159.54c13.7-2.1 16.46-3.03 9.04-3.03-8.5 0-25.62 4.4-25.62 6.56 0 .28.88.04 1.96-.54s7.66-1.92 14.63-3zm33.92 2.97c.34-.55-.08-1-.94-1s-1.56.45-1.56 1 .42 1 .94 1 1.22-.45 1.56-1zm79.3-7.3c-.88-1.75-2.6-5.36-3.82-8s-2.43-4.58-2.7-4.3c-.44.43 1.04 4.04 5.5 13.36.84 1.8 1.8 3 2.1 2.7s-.2-1.98-1.08-3.75zm-27.8.77c0-.53-13.3-3.34-18.75-3.96-8.86-1-5.83 1.1 4.5 3.1 8.33 1.64 14.25 2 14.25.87zm-31.57-3.36c.3-.48-.1-1.14-.94-1.46-.9-.35-1.48 0-1.48.9 0 1.6 1.56 1.98 2.43.57zm-8.04-11.68l-.23-6.17c-.15-4.14-.23-4.25-3.6-4.25-1.88 0-3.65.36-3.92.8s.72.76 2.2.74c1.98-.03 2.7.48 2.77 1.96.06 1.1.17 3.73.25 5.84.1 2.56.56 3.7 1.4 3.42.67-.23 1.2-1.28 1.14-2.34zm-43.38 1.16c0-.94-3.2-3.57-4.32-3.55-.65 0-.06.9 1.32 1.97 2.65 2.07 3 2.26 3 1.58zm28-5.74c0-1.08.45-1.68 1-1.34s1-.07 1-.9c0-.9.58-1.3 1.4-1 .77.3 1.7.06 2.06-.53.86-1.4-6.67-.97-7.7.43-.4.55-.74 2.23-.75 3.72 0 2 .38 2.57 1.5 2.15.8-.32 1.5-1.46 1.5-2.53zm45.42 0c2.47-1.2 4.25-2.56 3.97-3s.05-.84.73-.84 1-.22.72-.5c-.63-.63-5.5 1.84-8.83 4.48-3.27 2.6-2.1 2.54 3.42-.15zm-85.46-1.2c-.8-.77-3.26-1.63-5.46-1.93-4-.53-3.32-.07 3 2.07 4.12 1.4 4.1 1.4 2.46-.14zm98.54-5.64c.34-.55-.08-1-.94-1s-1.56.45-1.56 1 .42 1 .94 1 1.22-.45 1.56-1zm-45.5-10.06c0-.5-.68-.94-1.5-.94-1.55 0-2 1.18-.86 2.3.8.8 2.36-.1 2.36-1.36zm-9.17-9c-.32-2.22-.4-2.24-2.12-.52-1.4 1.42-1.53 2.1-.6 3.23 1.57 1.88 3.16.3 2.72-2.72zm2.8 1.78c-.17-.67-.1-.88.12-.47s1.35.75 2.5.75c1.93 0 1.96-.1.4-1.83-2.53-2.8-4.65-2.32-4.65 1.06 0 1.6.43 2.63.96 2.3s.82-1.14.66-1.8zm.57-9.97c-.48-1.75-.7-1.87-.97-.55-.23 1.1-.93 1.47-1.96 1.08-1.07-.4-1.37-.22-.9.55.4.65 1.57 1.17 2.58 1.17 1.44 0 1.7-.5 1.24-2.25zm-9.8-1.3c.32-.87 1-1.32 1.48-1.02s1.18-.46 1.52-1.7c.62-2.18.66-2.2 2.12-.3.8 1.1 1.48 1.4 1.48.7s.45-.97 1-.63c.55.35 1-.4 1-1.7.03-1.84.22-2 1-.8 1.3 2 1.28-.13-.02-3.55-.87-2.28-.78-2.58.58-2.06 1.03.38 1.46.15 1.2-.65-.23-.68-1.96-1.37-3.84-1.53-2.3-.2-2.98.02-2.06.63 1.04.7 1.07 1.08.13 1.66-.67.43-1.6.15-2.08-.62-.72-1.13-.87-1.1-.9.15 0 1.93-3.77 5.23-5.05 4.44-.52-.32-.95.08-.95.9s-.56 1.7-1.25 1.97c-1 .4-1 .52 0 .58.7.05 1.25.9 1.25 1.92 0 3.22 2.34 4.33 3.4 1.6zm11.72-1.7c-.98-1-1.1-.88-.56.55.38.98.94 1.54 1.25 1.23s0-1.1-.7-1.8zm4.22-7.3c-.33-.86-1.25-1.3-2.05-1s-1.75.6-2.1.62c-.75.08 2.9 1.75 4.04 1.86.4.04.45-.63.12-1.48zm-7.84-12.45c.34-.55.17-1-.38-1s-1.28.45-1.62 1-.17 1 .38 1 1.28-.45 1.62-1zm6.7-.68c-.74-.3-1.6-.25-1.93.08s.25.57 1.3.52c1.17-.04 1.4-.28.6-.6zm-17.2-4.44c0-.82.37-.82 1.37.02 1.82 1.52 4.62.35 4.62-1.94 0-2.25 1.64-3.44 2.33-1.7.28.68.55.18.6-1.1.06-2.07-.27-2.3-2.55-1.72-1.75.44-3.2.13-4.37-.93-1.58-1.42-1.83-1.42-2.36-.04-.32.85-.36 2.15-.07 2.88s-.18 1.92-1.02 2.62-1.3 1.67-1 2.16c.8 1.26 2.44 1.1 2.44-.24zm19.75.04c-1.87-1.1-2.4-3.92-.75-3.92.55 0 1 .4 1 .9s.9 1.1 2 1.4c2.3.6 2.74-.8.5-1.66-.82-.3-2.4-2.05-3.5-3.85-1.8-2.98-2-3.08-2-1 0 1.3-.44 2.05-1 1.7-.55-.34-1 .38-1 1.6 0 2.55 2.77 5.77 5 5.8 1.16.04 1.1-.2-.25-.98zm-5.54-3.92c-.3-2.1-1-3-2.3-3-1.23 0-1.66.5-1.27 1.5.3.82.97 1.24 1.46.94s.9.37.9 1.5.37 2.06.83 2.06.62-1.35.38-3zm-18.2 0c1.24-2.33.46-2.6-1.58-.57-1.66 1.66-1.83 2.57-.47 2.57.53 0 1.45-.9 2.04-2zm28-3c0-.55-.5-1-1.07-1s-.78.45-.44 1 .82 1 1.06 1 .44-.45.44-1zm-19-2.76c0-.4-.94-1.33-2.07-2.04-1.9-1.2-1.98-1.13-.97.76 1.06 1.98 3.02 2.82 3.02 1.28zm10-1.3c0-.58-.46-.78-1-.44s-1 .82-1 1.06.44.44 1 .44 1-.47 1-1.06zm2-3.5c0-.24-.46-.44-1-.44s-1 .48-1 1.06.44.78 1 .44 1-.8 1-1.06zm47.06-6.74c1.18-1.54 1.95-3 1.7-3.24-.43-.44-5.7 6.56-7.2 9.54-.72 1.47 1.2-.72 5.5-6.3zm-58.48 2.57c-.33-.33-.57.26-.52 1.32.05 1.15.28 1.4.6.6.3-.73.26-1.6-.08-1.93zm-63.6-12.64c0-.2-.8-1-1.75-1.75-1.6-1.25-1.62-1.2-.38.37 1.3 1.67 2.12 2.2 2.12 1.38zm139.2-10.64l2.08-3.5-3.14 3.2c-3.2 3.27-3.96 4.74-2.1 4.12.6-.2 2-1.92 3.15-3.83zm12.8-15.56c0-.24-.45-.44-1-.44s-1 .48-1 1.06.45.78 1 .44 1-.8 1-1.06zm-58 86.12c0-.7 4.15-7.56 4.57-7.56.2 0-.1 1.02-.63 2.25s-1.25 3.04-1.58 4c-.54 1.52-2.38 2.54-2.38 1.3zm37.5-55.56c.34-.55 1.3-1 2.12-1 .82 0 1.22.45.88 1s-1.3 1-2.12 1c-.82 0-1.22-.45-.88-1z" fill="#818181"/>
  <path d="M22.15 288.43c-.84-1.85.45-5.1 3.9-9.82 2.57-3.53 3.2-6.1 1.47-6.1-1.7 0-1.1-2.74.72-3.44 1.4-.54 1.46-.82.35-1.5-1.1-.7-.84-1.38 1.26-3.33 2.5-2.3 3.56-4.87 1.9-4.6-2.02.3-2.06-.3-.12-2.24 1.7-1.73 1.86-2.3.75-3.03-1.15-.75-1.1-1.1.2-2.14.87-.67 2.1-3.93 2.7-7.23s2.2-10.95 3.53-17c1.54-7.05 2.24-12.98 1.97-16.5-.37-4.88.85-20.2 2.15-27 .26-1.37.76-4.3 1.1-6.5.87-5.4 3.13-11.22 5.23-13.43 2-2.1 10.13-6.3 15.24-7.87 1.92-.6 7.32-1.33 12-1.64 12.63-.85 17.1-1.65 17.7-3.18.28-.76 1.14-1.38 1.9-1.38 1.57 0 1.88-1.58.5-2.43-.5-.3-3.98-.6-7.75-.67-7.1-.1-14.78-2.38-26.92-7.97-10.35-4.76-10.9-4.75-13.23.24-3.6 7.7-5.2 11.6-5.2 12.62 0 .53-.67 2.26-1.5 3.84s-1.5 3.8-1.5 4.96-.75 3.6-1.67 5.44c-1.1 2.2-1.64 5.62-1.58 9.9.1 5.58-.1 6.3-1.2 4.8-1.85-2.53-2.2-2.24-3.48 3-.65 2.63-1.86 6.27-2.7 8.1s-1.7 5.2-1.87 7.47-.8 4.3-1.4 4.5-1.1 1.9-1.1 3.8c0 2.14-.46 3.3-1.23 3.15-.8-.16-1.15.95-1.03 3.25.1 1.93-.05 2.94-.36 2.25-1.18-2.67-2.38-1.04-2.38 3.25 0 3.34-.4 4.5-1.5 4.5-1.67 0-2.07 3.54-.5 4.5.55.34 1 1.32 1 2.18 0 1.4-.26 1.38-2.47-.06-3.1-2.04-4.4-2.03-6.7.04-1.02.92-2.08 1.43-2.36 1.15-1.03-1 .6-3.33 3.53-5 3.3-1.88 3.98-5.2 1.3-6.23-1.4-.54-1.14-1 1.5-2.6 3.56-2.17 4.26-4.06 1.2-3.26-3.06.8-2.4-1.26 1.1-3.47 1.76-1.1 2.66-2.25 2.07-2.6-.57-.37-1.33-.2-1.67.36-.8 1.28-2.5 1.3-2.5.03 0-.54 1.4-1.7 3.13-2.6 2.45-1.26 2.84-1.83 1.75-2.53-1.12-.74-.96-1.24.85-2.65 1.42-1.1 3-4.5 4.37-9.25 1.18-4.12 2.77-8.9 3.52-10.65s1.38-4.74 1.38-6.7.4-3.77.87-4.07 1.14-2.3 1.5-4.47 1.37-5.43 2.3-7.26c2.96-5.94 3.32-6.8 3.32-7.96 0-.64.86-3 1.92-5.27s2.18-4.77 2.5-5.6c.93-2.45 3-5.44 4.33-6.3.7-.44 1.25-1.42 1.25-2.18 0-1.83 3.47-2.85 9-2.65 4.23.15 9.8 2.5 22.48 9.54 3.26 1.82 4.8 2.08 8.5 1.47 2.5-.4 5.08-.77 5.77-.8s1.27-1.08 1.28-2.32.68-3.37 1.47-4.75c2.14-3.75 1.83-4.75-1.92-6.1-1.9-.7-3.93-2.2-4.55-3.34s-2.4-2.96-3.96-4c-5.95-4-24.73-36.48-23.9-41.33.25-1.52-2.92-6.45-7.67-11.9-.55-.63-1.98-2.43-3.17-4-6.78-8.88-8.73-10.87-11.1-11.33-1.45-.27-2.44-.95-2.2-1.5s1.07-.84 1.9-.65-2.93-3.98-8.32-9.25c-7.17-7.03-10.48-9.6-12.33-9.6-2 0-2.3-.28-1.4-1.34 1.42-1.72.45-2.65-2.8-2.67-1.87-.02-2.2-.27-1.2-.9 1-.64.5-1.07-1.88-1.6-2.35-.5-2.88-.95-1.9-1.56 2.23-1.38-.4-3.17-5.14-3.5-5.7-.4-5.96-1.12-.8-2.14 4.12-.8 4.35-1.04 4.65-4.63.2-2.4.76-3.64 1.5-3.37.66.23 1.05 1.64.9 3.14-.4 3.6 1.5 6.04 3.47 4.4 1.14-.94 1.54-.73 2 1.08.44 1.64.82 1.9 1.4.95.58-.94 1.07-.6 1.78 1.27.54 1.4 2.32 4.03 3.96 5.83 2.6 2.85 3.04 3.03 3.4 1.4.3-1.27.8-.54 1.62 2.27.74 2.63 2.18 4.77 3.92 5.86 4.7 2.94 10.44 9.76 9 10.67-.82.52-.33.8 1.4.82 1.77 0 3.68 1.2 5.86 3.68 4.52 5.14 19.64 28.3 23.3 35.68 3.44 6.9 3.2 6.36 4.18 9.4.4 1.23 1.13 2.24 1.62 2.24s.88.65.88 1.45c0 3.55 9.35 18.2 12.2 19.1 2.44.8 3.55-.2 1.98-1.76-.7-.72-1.17-4.25-1.16-8.75 0-8.8 3-15.78 6.54-15.25 1.45.2 1.6.06.6-.63-1.12-.74-1.03-1.3.46-3.04 1-1.17 2.4-2.13 3.1-2.13s1.28-.45 1.28-1-2.4-1-5.3-1c-4.6 0-5.72-.4-8.15-2.94-2.5-2.63-2.76-3.47-2.3-7.72.43-3.7 1.26-5.4 3.65-7.54 1.7-1.52 3.1-3.1 3.08-3.53s-4.25-3.92-9.44-7.77c-8.83-6.55-9.7-7.52-13.56-15.18-3.4-6.74-5.74-9.7-13.3-16.8-5.05-4.76-11.43-9.86-14.17-11.33-2.75-1.5-5.15-3.54-5.35-4.6-.33-1.7.07-1.8 3.83-1.2 6.76 1.07 17.14 9.06 25.07 19.3.97 1.25 3.7 6.07 8.55 15.1 1.96 3.66 4.26 6.18 7.37 8.1 2.48 1.56 6.73 4.66 9.44 6.9l4.92 4.1 4.07-3.95c2.24-2.17 4.34-3.95 4.68-3.95s1.84 1.13 3.32 2.5 2.92 2.5 3.2 2.5 3.42-2.25 7.02-5 7.82-5.7 9.38-6.5 3.5-2.7 4.3-4.23c2.04-3.83 8.5-15.34 9.98-17.77 2.75-4.52 12.2-14.73 16.08-17.36 5-3.4 10.7-5.48 11.86-4.32 1.57 1.58-.27 3.8-6 7.2-8.1 4.84-17.97 14.88-21.08 21.48-.52 1.1-2.06 3.63-3.42 5.62s-3.03 5.3-3.7 7.36c-.8 2.37-2.34 4.35-4.23 5.4-4.5 2.47-15.78 11.08-15.78 12.04 0 .47 1.12 1.6 2.5 2.5 4.5 2.93 7.02 12.32 4.25 15.75-2.32 2.86-6.18 4.83-9.47 4.83-4 0-4.4 2.23-.8 4.58 1.35.9 3.64 4.02 5.07 6.95 2.22 4.53 2.6 6.68 2.64 14.45.04 9.9.8 10.8 4.32 5.24 1.1-1.73 2.57-2.95 3.27-2.7 1.32.46 4.54-2.73 6.77-6.7 5.56-9.95 11.1-23.82 9.5-23.82-1.02 0-4.05 6.78-4.05 9.04 0 1.08-.45 1.96-1 1.96-1.86 0-.9-3.7 2.9-11 .44-.82 1.23-2.4 1.78-3.5 4.07-8.2 6.42-11.96 7.36-11.72.6.15.98-.53.84-1.5-.5-3.48 11.86-20.4 15.26-20.9 2.15-.3 2.28-.46 1.1-1.22-.97-.6-.73-1.28.97-2.73 1.86-1.6 2-1.6.88-.15-.75.97-1.14 2-.86 2.27.6.62 7.16-6.52 8.8-9.6 1.08-2 1-2.17-.6-1.55-1.7.65-1.7.58-.13-1.16.93-1.02 1.5-2.78 1.28-3.93-.32-1.63 0-1.96 1.52-1.57 1.27.34 1.92 0 1.92-1 0-.83.67-1.77 1.5-2.1s1.5-1.75 1.5-3.2c0-1.93.4-2.5 1.5-2.07 1 .38 1.68-.24 2.1-1.88.33-1.36.95-2.25 1.37-2 1.6 1 4.17-3.34 3.84-6.54-.18-1.86.18-3.4.86-3.65.68-.24 1.3.77 1.5 2.4.25 2.2.94 2.9 3.2 3.3l2.85.5-4.23 2.77c-3.1 2.03-4.06 2.33-3.6 1.1.55-1.4.4-1.45-.92-.35-1.38 1.15-1.26 1.5 1.06 3l2.62 1.73-3.33 1.27c-2.56.97-2.9 1.37-1.5 1.7 1.46.37 1.18.8-1.5 2.24-1.84.98-3.33 2.25-3.33 2.82s-1.4 2.36-3.1 4-3.73 3.85-4.5 4.95-3.96 4.8-7.1 8.2-5.46 6.8-5.2 7.5-.14 1.57-.94 1.87c-3.24 1.25-18.9 26.84-20 32.7-.7 3.63-3.66 11.06-8 20-1.18 2.46-4.75 7.1-7.9 10.32-3.38 3.42-5.77 6.74-5.8 8-.04 3.05-2.15 5.5-5.82 6.8-3.5 1.2-3.83 2.05-1.64 4.24.82.83 1.5 2.2 1.5 3.07 0 1.17 1.03 1.57 4.03 1.57 2.22 0 5.07.68 6.34 1.5 2.14 1.42 2.92 1.2 12.7-3.82 5.73-2.93 13.03-6.4 16.2-7.7 5.72-2.35 5.86-2.35 9.2-.56 3.1 1.67 10.52 11.83 10.52 14.4 0 .56.37 1.17.82 1.35.82.33 7.18 12.9 7.18 14.17 0 .38.96 2.73 2.14 5.24 1.42 3.03 1.8 4.88 1.14 5.55-1.04 1.03.3 6.1 3.33 12.66.84 1.8 1.6 4.16 1.67 5.24s.48 1.96.9 1.96 1.02 1.56 1.38 3.47c.4 2.15 1.37 3.7 2.54 4.07 1.98.62 2.64 2.46.9 2.46-2.33 0-.75 2.1 2 2.65 3.08.62 4.2 2.35 1.5 2.35-2.6 0-1.63 2.93 1.2 3.65 2.4.6 2.5.76.78 1.36-1.85.66-1.84.74.3 1.9 1.7.9 2.1 1.76 1.64 3.55-.83 3.33 1.16 6.55 4.06 6.55 1.32 0 2.68-.45 3.03-1 .88-1.44 2.5-.23 2.5 1.86 0 1.33-.9 1.77-3.75 1.85-2.44.08-4.1.73-4.75 1.87-1.54 2.7-4.6 5.67-5.2 5.06-.3-.3.23-1.3 1.17-2.25 1.23-1.23 1.57-2.7 1.18-5.07-.6-3.77-4.66-9.75-4.66-6.87 0 .93-.38 1.46-.83 1.18s-.63-2-.36-3.8c.43-2.97.32-3.15-1.17-1.92-1.5 1.23-1.65.96-1.65-2.8 0-2.55-.4-3.95-1-3.58-.6.37-1-.67-1-2.5s-.42-2.86-1-2.5c-.55.35-1-.38-1-1.6 0-2.4-4.18-15.23-6.72-20.67-1.4-3.02-1.63-3.13-2.87-1.5-1.27 1.67-1.35 1.65-1.38-.28-.02-1.12.5-2.6 1.17-3.25.93-.93.93-1.46 0-2.4-.66-.66-1.2-1.9-1.2-2.75s-.6-2.67-1.3-4.05-2.34-5.3-3.6-8.7c-3.33-8.94-9.32-20.46-11.26-21.65-1.7-1.05-3.42-.33-16.84 7.13-5.96 3.3-18.7 6.97-23.7 6.82-1.7-.05-2.9.24-2.65.65s0 .75-.6.75-1.05.38-1.05.84c0 1.8 5.43 3.16 12.57 3.16 9.1 0 21.8 3.1 29.6 7.22 7.26 3.82 8.38 5.1 10.7 12.35 1.9 5.96 1.9 8.15 0 5.4-1.12-1.6-1.15-1.77 1.73 12.53.88 4.4 1.84 10.82 2.12 14.25.5 6.27 1.75 8.22 2.56 4 .25-1.23.5-.37.58 1.9s1.03 7.03 2.13 10.5 2 7.34 2 8.54.47 2.46 1.02 2.8 1 1.6 1 2.8.68 3.5 1.5 5.07 1.5 3.43 1.5 4.13.67 1.82 1.5 2.5 1.5 2.32 1.5 3.63.5 2.37 1.1 2.37.85.7.52 1.56.1 2.63.98 3.95 1.32 2.82 1.02 3.3.62 1.92 2.05 3.16c1.87 1.64 2.24 2.47 1.35 3.03-1.4.85-.5 5.03 1.35 6.24.62.4 2.84.74 4.95.75 2.63 0 3.7.4 3.4 1.25-.24.73-2.14 1.25-4.54 1.25-3.45 0-4.56.55-6.96 3.42-1.84 2.2-3.3 3.14-4.13 2.64-.92-.57-.55-1.5 1.42-3.56 2.6-2.7 2.62-2.86 1.04-5.92-1.02-1.96-2.27-3.04-3.33-2.86-1.4.23-1.7-.48-1.63-3.72.04-2.33-.48-4.33-1.25-4.8-.73-.44-1.33-2.17-1.33-3.85 0-2.3-.37-2.92-1.5-2.48-1.65.63-1.76.22-.87-3.12.33-1.23 1.22-2.25 2-2.25s1.37-.45 1.37-1c0-1.57-2.72-1.16-3.36.5-1.25 3.25-2.14 1.2-2.2-5.08-.06-3.62-.54-6.88-1.1-7.25-.93-.63-3.44-10.02-4.9-18.42-.72-4.07-1.95-4.86-2.9-1.84-.35 1.06-1.3 2.5-2.14 3.2-1.33 1.1-1.44.87-.83-1.67.37-1.6 1.07-3.35 1.55-3.88 1.3-1.4 1.05-9.85-.53-18.45-.78-4.18-1.94-10.75-2.6-14.6-2.13-12.5-2.76-14.15-5.92-15.46-4.12-1.7-9.04-2.78-21.08-4.58-5.78-.86-12.7-2.2-15.37-3s-5.27-1.18-5.76-.88-2.47-.02-4.4-.72c-3.3-1.2-3.7-1.1-6.1 1.3l-2.6 2.6 3.27 1.62c1.8.9 4.34 1.62 5.66 1.62 3.1 0 2.15 1.5-2.53 3.97-3.1 1.64-3.33 1.95-1.4 2 3.82.06 9.74 3.68 14.03 8.56 6 6.82 8.2 14.54 8.2 28.95 0 6.35-.43 12.33-.95 13.3s-2.3 4.7-3.94 8.35c-2.12 4.68-4.38 7.77-7.67 10.5-6.72 5.58-8.8 7.58-10.64 10.22-1.6 2.3-1.65 2.32-3.57.4-1.06-1.07-4.52-3.25-7.68-4.84-7.9-3.97-11.8-8.08-15.88-16.62-5.12-10.75-5.7-13.14-5.64-23.68.06-14.2 2.27-21.46 8.42-27.65 2.58-2.6 9.2-6.45 11.1-6.45.8 0 1.44-.45 1.44-1s-1.46-1-3.25-1c-5.77-.04-6.54-1.55-1.97-3.88 5.02-2.57 5.9-3.86 3.93-5.83-1.3-1.3-2.28-1.35-6.86-.3-2.94.7-6.25 1.63-7.35 2.1s-8.53 2.17-16.5 3.8c-15.75 3.2-19 4.18-20.68 6.25-.6.74-1.83 6.76-2.73 13.37-1.64 12.24-1.4 28.18.5 33.2.5 1.33.92 3.3.92 4.36 0 1.68-.27 1.77-1.96.72-1.07-.67-2.2-.96-2.53-.64s-1 3.9-1.53 7.96-1.6 10.53-2.43 14.38-1.22 8.47-.9 10.27c.46 2.6.28 3.15-.9 2.7-1.15-.45-1.38 0-1 1.98.3 1.54.03 2.55-.67 2.55-.77 0-.86.58-.25 1.75 1.05 2.04.42 4.53-.92 3.7-1.72-1.07-2.16 2.62-.53 4.42 2.2 2.42 2.04 3.16-.6 2.87-2.9-.3-5.26 5.88-3.76 9.83.54 1.4.98 3.52.98 4.7 0 2.07-.03 2.07-1.4.2-.8-1.08-1.24-2.24-1.02-2.6s-.28-1.2-1.1-1.9c-1.24-1-1.88-.92-3.44.5-1.06.96-2.1 2.7-2.3 3.9-.32 1.73-.52 1.84-1.1.56zM114 241.6c.42-2.17-.27-2.1-3.33.26-1.1.85-1 1.18.5 1.72 2.23.8 2.3.76 2.83-1.97zm-73.62-5.1c0-2.28-.08-2.32-.86-.5-.47 1.1-.86 3.13-.86 4.5 0 2.28.08 2.33.86.5.47-1.1.86-3.12.86-4.5zm147.25-.28c-.82-.82-1.1-.7-1.1.42 0 1.98 1.33 3.33 1.83 1.84.2-.63-.12-1.65-.73-2.26zm-83.5-4.45c-.34-.33-.58.26-.53 1.32.05 1.15.28 1.4.6.6.3-.73.26-1.6-.08-1.93zm7.64 2.07c-.7-.28-1.8-.28-2.5 0s-.13.5 1.25.5 1.94-.22 1.25-.5zm-9.35-5.4c.07 1.1.43 1 1.45-.4 1.03-1.4 2.1-1.7 4.5-1.22 1.73.35 3.15.23 3.15-.26 0-1.1-3.98-1.88-10.37-2-2.67-.04-5.26-.33-5.76-.63-1.22-.75-4.88.48-4.88 1.64 0 .52 1.43.83 3.18.7 2.64-.22 3.3.16 3.9 2.23.7 2.45.72 2.44.92-.5l.2-3 1.1 3.48c1.1 3.38 1.14 3.4 1.8 1 .4-1.36.74-1.83.8-1.04zm6.1-7.94c0-.55-.45-1-1-1s-1-.67-1-1.5.64-1.5 1.42-1.5 1.66-.56 1.97-1.25.47.33.34 2.25c-.2 3.17.05 3.53 2.64 3.83 1.84.2 2.62-.05 2.2-.75-.38-.6-1.35-1.08-2.18-1.08-1.12 0-1.42-.94-1.2-3.75.28-3.3.6-3.73 2.85-3.6 1.9.13 2.54-.32 2.54-1.74 0-2.06-1.56-2.7-1.6-.65-.03.7-.5.47-1.07-.5-.56-.97-.74-2.2-.4-2.75s.13-1-.45-1-1.07 1.24-1.08 2.75c0 1.93-.27 2.35-.87 1.4s-1.07-1.02-1.54-.25c-.4.6-.44 1.52-.12 2.03s.1 1.22-.44 1.56c-.62.37-1.02-.75-1.02-2.83 0-1.97-.58-3.67-1.34-3.97-1.82-.7-12.93-2.15-14.07-1.84-.5.14-1.18-.2-1.53-.78-.95-1.53-5.26-1.77-5.77-.33-.3.8.12 1.04 1.14.65.88-.34 1.58-.1 1.58.56 0 .64.45.88 1 .54s1 .1 1 1-.45 1.34-1 1c-.57-.35-1 .5-1 2 0 2.15.4 2.57 2.25 2.32 1.72-.24 2.66.5 4 3.18l1.75 3.5.12-3 .12-3 .67 3c.45 2.02.25 3.27-.64 3.82-.73.44-1.06 1.23-.74 1.75.78 1.26 12.46 1.2 12.46-.07zm-8.86-2c-.1-1.37-.4-3.62-.68-5l-.52-2.5 1.08 2.47c.6 1.35.9 3.6.67 5l-.38 2.53-.16-2.5zm4.53 1.34c-.38-.37-.68-3.37-.68-6.67 0-7.52.86-6.9 1.65 1.2.58 5.95.4 6.87-.98 5.47zm-2.6-1.75c-.05-1.07.2-1.66.52-1.33s.37 1.2.08 1.92c-.32.8-.55.55-.6-.6zm5.08-4.6c0-1.37.22-1.93.5-1.25s.28 1.82 0 2.5-.5.13-.5-1.25zm-13.16-3.94c0-.58.45-1.06 1-1.06s1 .2 1 .44-.45.72-1 1.06-1 .15-1-.44zm-1.84-2.06c0-1.37.22-1.93.5-1.25s.28 1.82 0 2.5-.5.13-.5-1.25zm2.66 9.18c.2-1.45-.2-2.18-1.25-2.18-.87 0-1.58-.45-1.58-1s-.68-1-1.5-1-1.5.45-1.5 1 .44 1 .98 1 1.27 1.15 1.62 2.55c.75 2.98 2.76 2.75 3.22-.37zm26.28-.47c-1.28-1.28-2.58-.28-1.63 1.25.36.6 1.12.8 1.68.46.68-.4.66-.97-.06-1.7zm-73.44-1.13c-1.15-3.02-2.74-9.64-2.58-10.83.08-.68.05-3.04-.07-5.24l-.23-4-1.03 4.5c-1.48 6.5-1.24 13.4.55 15.75 1.32 1.75 4.05 1.6 3.36-.18zm39.93-5.3c-1.07-1.1-1.64.42-.88 2.34.7 1.8.76 1.82 1.1.08.2-1 .1-2.1-.2-2.42zm39.42 1.73c0-.55-.48-1-1.06-1s-.78.45-.44 1 .82 1 1.06 1 .44-.45.44-1zm-15-5c0-.55-.45-1-1-1s-1 .45-1 1 .45 1 1 1 1-.45 1-1zm-8.64-5.5c1.95-1.95 2.64-1.9 2.65.25.02 1.5.16 1.54 1 .25.52-.82.97-1.1.97-.62s.78.25 1.7-.5c1.16-.94 1.46-.98.95-.13-.4.7-.3 1.25.24 1.25 1.13 0 2.48-3.6 1.78-4.74-.25-.4-.72-3.1-1.02-5.98-.46-4.26-.25-5.4 1.15-6.2 1.46-.82 1.36-.94-.66-.8-2.32.16-2.36.34-1.8 7.2.5 6.28.42 6.82-.88 5.08-.8-1.06-1.44-1.38-1.44-.7s-.45.98-1 .64-1-1.8-1-3.25c0-2.48.08-2.52 1.38-.74 1.25 1.72 1.38 1.52 1.44-2.28.03-2.3-.34-5.53-.8-7.2-.77-2.63-.63-3.02 1.1-3.02 1.1 0 1.7-.45 1.37-1s-1.05-.76-1.57-.44-1.62-1.02-2.45-2.98c-1.72-4.13-2.04-4.3-2.75-1.57-.3 1.1-.12 1.75.38 1.45 1.45-.9 1.06.55-.58 2.2-1.33 1.33-1.52 1.24-1.63-.82-.1-1.64-.36-1.3-.88 1.17-.47 2.22-.8 2.7-.87 1.3-.2-3.18-2.13-3.92-2.13-.8 0 1.56-.42 2.36-1.04 1.98-.67-.4-.82.22-.44 1.76.4 1.64.05 2.87-1.15 3.84-.98.8-1.44.9-1.04.22.42-.7-.16-1.66-1.43-2.34-2.04-1.1-2.12-.97-1.75 2.9.3 3.2.02 4.12-1.4 4.5-.96.25-1.76.98-1.76 1.6s.5.86 1.1.48c.77-.47.75-.03-.04 1.46-.9 1.67-.87 2.08.15 1.87.7-.15 1.3.4 1.32 1.23.06 3.6 2.97 5.34 3.78 2.25.4-1.57.47-1.56.57.12.1 1.43.7 1.76 2.62 1.4 1.37-.27 2.5-.1 2.5.37 0 1.34 1.7 1.02 3.36-.64zm-2.36-2.94c0-.24.45-.72 1-1.06s1-.14 1 .44-.45 1.06-1 1.06-1-.2-1-.44zm-6.92-1.97c-.05-1.07.2-1.66.52-1.33s.37 1.2.08 1.92c-.32.8-.55.55-.6-.6zm10.92-13.66c0-1.13.43-1.8.96-1.46s.7 1.25.4 2.06c-.8 2.06-1.36 1.82-1.36-.6zm11.3 18.27c-.65-.4-1.33-2.87-1.5-5.47s-.65-4.72-1.08-4.73c-.76 0 .05 8.76.95 10.25.23.42.97.75 1.63.74.92-.02.92-.2 0-.8zm-70.46-10.84c.14-2.08-.02-3.5-.36-3.17-.94.93-1.62 8-.7 7.44.44-.27.92-2.2 1.06-4.28zm69.16-3.92c0-.24-.45-.44-1-.44s-1 .48-1 1.06.45.78 1 .44 1-.8 1-1.06zm-1.05-12c-1.46-1.76-1.6-1.77-2.23-.14-.3.77.3 1.36 1.46 1.44 1.6.12 1.75-.1.77-1.3zM37.9 162c3.64-11.06 4.4-14.46 2.56-11.28-1.6 2.76-7.94 20.73-7.94 22.53 0 3.35 1.82-.46 5.37-11.25zm79.8 8.82c-.72-.3-1.58-.25-1.9.08s.25.57 1.3.52c1.17-.04 1.4-.28.6-.6zm-10.18-1.38c0-.58-.45-.78-1-.44s-1 .82-1 1.06.45.44 1 .44 1-.47 1-1.06zm6.2.38c-.74-.3-1.6-.25-1.93.08s.25.57 1.3.52c1.17-.04 1.4-.28.6-.6zm74.78-7.07c0-.68-.66-1.25-1.48-1.25-1.5 0-2.1 3.08-.82 4.35.78.78 2.28-1.23 2.3-3.1zm-82.35-.95c-.83-.83-3.63.5-3.63 1.7 0 .75.64.73 2.08-.04 1.15-.62 1.85-1.36 1.55-1.66zm7.87 1.7c-.34-.55-1.15-1-1.8-.98-.73 0-.6.4.3.98 1.92 1.25 2.27 1.25 1.5 0zm-56.48-1c1.03-.56 7.55-1.85 14.47-2.88 14.47-2.14 17.8-3.68 6.02-2.8-9.05.7-18.67 3-21.82 5.2-2.4 1.68-1.52 2 1.34.47zm105.98-4c-.83-.53-1.95-.97-2.5-.97s-.33.44.5.97 1.95.97 2.5.97.32-.43-.5-.97zm22.44-2.38c-.36-1.44-1.02-2.62-1.47-2.62s-1.1-1.24-1.43-2.77c-.6-2.72-4.53-9.54-4.54-7.88 0 .83 1.15 3.58 5.24 12.46 2.13 4.64 3.25 5.06 2.2.82zm-28.62-.16c.5-.4-13.8-3.54-19.07-4.17-2.94-.36-4.75-.18-4.75.45 0 1.25 3.2 2.3 8.5 2.82 2.2.22 5.35.8 7 1.3 2.52.77 7.16.54 8.32-.4zm-31.57-3.87c.14-.52-.3-1.12-1-1.35s-1.25.34-1.25 1.25c0 1.7 1.8 1.76 2.25.1zm-7.82-11.43c-.34-10.14-.26-9.9-3.47-10.4-1.68-.23-3.25-.1-3.5.3-.73 1.17-8.46 1.6-8.5.46-.08-2.88-2.96 3.37-2.95 6.4 0 2.46.3 3.14.9 2.18.7-1.1.98-1 1.37.5.27 1.05.58.1.7-2.1.2-3.54.3-3.7 1.02-1.5.74 2.32.8 2.25.98-1 .1-1.92.4-2.9.7-2.2.32.8.94.95 1.67.38 2.15-1.7 6.5-2.24 7.3-.93.9 1.44 1 1.9 1.2 7.1.1 2.56.56 3.68 1.4 3.4.7-.23 1.22-1.4 1.18-2.58zm-44.16-.17c-.95-1.1-2.5-2-3.42-2s-1.92-.56-2.2-1.25c-.34-.84-.53-.87-.58-.1-.05.65 1.38 2.07 3.17 3.18 4.2 2.6 5.14 2.66 3.02.17zm74.2-4.2c2.48-1.2 4.52-2.58 4.52-3.05s.45-.6 1-.25 1 .16 1-.4 1.9-1.56 4.25-2.23c2.83-.8 3.63-1.35 2.4-1.63-2-.46-15.8 6.05-17.72 8.35-1.6 1.92-.74 1.77 4.54-.8zm-84.2-.92c-1.08-1.08-9.44-3.04-10.12-2.37-.32.33 8.35 3.2 10.3 3.4.5.06.44-.4-.18-1.02zm37.9-7.56c-.72-.3-1.58-.25-1.9.08s.25.57 1.3.52c1.17-.04 1.4-.28.6-.6zm-9.18-6.32c0-.55-.48-1-1.06-1s-.78.45-.44 1 .82 1 1.06 1 .44-.45.44-1zm22.5-1.83c0-1.96-1.95-1.8-2.33.2-.25 1.2.1 1.7.97 1.42.74-.26 1.35-1 1.35-1.63zm-8.7-6.37c.74-.74 1.2-.8 1.2-.15 0 .74 1.02.74 3.37 0l3.37-1.06-2.32-1.83c-3.76-2.96-10.16-.84-8.73 2.9.63 1.65 1.54 1.7 3.1.13zm11.5-4.8c.28-1.1.1-1.75-.4-1.44s-.9 1.2-.9 2c0 2.07.68 1.78 1.3-.56zm2.36-6.27c-.28-.67-.5.12-.47 1.77s.26 2.2.5 1.23.25-2.32-.02-3zm-16.1-4.73c.8 0 1.47.57 1.52 1.25.06 1 .18 1 .58 0 .28-.7.92-1 1.42-.7s.95-.47 1-1.74c.05-1.86.43-1.54 1.96 1.7 1.62 3.43 1.8 3.57 1.26 1-.34-1.65-1.26-4.52-2.03-6.38-1.27-3.02-1.25-3.32.15-2.78 1 .38 1.57.06 1.57-.87 0-2.2-7.85-2.02-8.7.2-.98 2.54-4.25 5.48-5.34 4.8-.53-.32-.96.08-.96.9s-.46 1.62-1.02 1.8c-1.2.4 1.03 5.8 2.4 5.83.5 0 1.5-.78 2.23-1.75 1.2-1.58 1.34-1.46 1.53 1.25.17 2.6.25 2.5.6-.75.24-2.4.9-3.75 1.82-3.75zm-.56-7.83c0-.46.65-.83 1.46-.83s1.22.37.94.83-.94.83-1.46.83-.94-.37-.94-.83zm6.15 12.05c-.32-1.56-.7-2.05-.9-1.15-.18.87-1.55 2.02-3.04 2.56-2.7.97-2.68.98.9 1.14 3.4.15 3.57.02 3.04-2.55zm-32.83-2.97c-1.27-3.62-5.3-12.25-5.74-12.25-.97 0 3.44 11.7 5 13.25 1.2 1.2 1.4.9.74-1zm39.1-6.72c-1.4-2.12-1.82-2.27-3.02-1.07-1.48 1.48-1.92 2.96-.65 2.23.4-.25 1.65-.08 2.75.36s2.12.83 2.27.87-.46-1.04-1.36-2.4zM66.86 80.96c-.32-.85-.8-1.33-1.06-1.07s-.18.95.18 1.54c.98 1.6 1.56 1.28.88-.48zm41.16-1.46c.34-.55-.08-1-.94-1s-1.56.45-1.56 1 .42 1 .94 1 1.22-.45 1.56-1zm8 0c.34-.55-.4-1-1.7-.98-1.85 0-2 .2-.8.98 1.86 1.2 1.76 1.2 2.5 0zm-12.33-6.84c.98-2.5 1.1-2.54 1.86-.66.72 1.76.83 1.66.9-.75.05-2.5 2.06-4.14 2.06-1.7 0 .6.45.8 1 .45s1-.14 1 .44-.56 1.07-1.25 1.08c-.83 0-.75.34.25.98 2.36 1.53 2.68 1.22 2.2-2.12l-.46-3.13-5.32.55c-3.96.4-5.6.18-6.53-.92-.97-1.18-1.36-1.22-2.02-.17-.45.72-.6 2.03-.32 2.9s-.18 2.2-1 2.88c-2.15 1.77-1.24 2.6 2.96 2.73 3.04.1 3.8-.32 4.67-2.54zm14.25 2.08c-1.2-.82-2.67-4.24-1.83-4.24.3 0 1.22.68 2.04 1.5s1.92 1.5 2.43 1.5c1.48 0 1.06-1.73-.58-2.36-.82-.3-2.4-2.05-3.5-3.85-1.8-2.98-2-3.08-2-1 0 1.3-.44 2.05-1 1.7-.55-.34-1 .38-1 1.6 0 2.54 2.77 5.76 5 5.83.94.03 1.1-.23.43-.7zm-24.4-3.76c.68-.84.98-1.8.64-2.14-.74-.73-3.68 1.5-3.68 2.8 0 1.36 1.63 1 3.02-.66zm58.95-3.8c0-.43-.43-.52-.98-.18s-1 1.38-1 2.3c.03 1.47.16 1.5 1 .2.53-.82.98-1.86.98-2.3zm-30.98.43c0-.48-.65-1.13-1.45-1.44-.97-.37-1.26-.07-.9.9.6 1.58 2.35 2 2.35.55zm-19-3.06c0-.53-.93-1.47-2.08-2.08-1.9-1-1.98-.93-.96.97 1.14 2.13 3.04 2.83 3.04 1.1zm10.6-1.8c1.5-1.96 1.76-3.24.65-3.23-.4.02-1.27 1.14-1.9 2.5-1.35 2.9-.67 3.3 1.26.75zm-7.6-3.3c0-.58-.45-.78-1-.44s-1 .82-1 1.06.45.44 1 .44 1-.47 1-1.06zm52.46-.8c.33-1.05 1.7-3.18 3.07-4.76s2.46-3.33 2.46-3.88c0-1.15-4.05 3.7-6.46 7.75-.9 1.52-1.2 2.75-.64 2.75s1.25-.84 1.58-1.87zm-54.86-2.87c-.33-.33-.57.26-.52 1.32.05 1.15.28 1.4.6.6.3-.73.26-1.6-.08-1.93zM40.44 43.22c-.23-.15-1.32-.94-2.42-1.75-1.85-1.36-1.9-1.33-.63.28.75.97 1.83 1.75 2.4 1.75s.86-.12.64-.28zM191.52 17.5c0-.55-.45-1-1-1s-1 .45-1 1 .45 1 1 1 1-.45 1-1zm-153 244c0-.55.45-1 1-1s1 .45 1 1-.45 1-1 1-1-.45-1-1zm142-62c0-.55.2-1 .44-1s.72.45 1.06 1 .14 1-.44 1-1.06-.45-1.06-1zm-.4-4.1c-.25-.77-.67-2.75-.93-4.4s-.74-4.12-1.06-5.5-.84-3.85-1.15-5.5l-.58-3 1.47 3c1.53 3.16 3.9 15.54 3.13 16.33-.26.25-.67-.17-.9-.93zm-50.02-87.25c.35-.9 1.03-1.65 1.53-1.65 1.28 0 1.1.58-.63 2.02-1.28 1.06-1.42 1-.9-.37zm3.42-5.6c0-.57.45-1.05 1-1.05s1 .2 1 .44-.45.72-1 1.06-1 .15-1-.44zm2-3c0-.5.44-1.2 1-1.54.55-.34.72.06.38.95-.66 1.73-1.38 2.05-1.38.6zm36-52.05c1.96-1.26 3.28-1.26 2.5 0-.34.55-1.38 1-2.3 1-1.47-.02-1.5-.16-.2-1zm2.92-13.36c2.7-2.94 3.24-3.23 2.53-1.36-.27.7-1.5 1.88-2.72 2.63-2.13 1.3-2.12 1.24.2-1.26z" fill="#5d5d5d"/>
  <path d="M22.55 288.5c-.5-2.73.14-4.46 3.07-8.44 3.1-4.22 3.58-6.47 1.77-8.3-.86-.83-.4-1.8 1.74-3.78 1.8-1.66 2.22-2.44 1.13-2.1-.96.3-1.75.38-1.75.17 0-.93 5.96-6.25 6.45-5.76.3.3.55 0 .55-.65 0-.8-.92-.96-2.75-.52l-2.75.67 2-2.3c1.5-1.7 1.67-2.4.7-2.75-1.03-.35-.94-.88.37-2.33.93-1.03 1.84-2.9 2.02-4.14s.8-4.3 1.35-6.78l2.2-9.78c.78-3.47 1.47-4.85 2.02-4 .65 1.02 1.02.98 1.8-.22.75-1.12.9-.74.64 1.5-.84 6.95-1.92 13.07-2.47 14-.33.55-.67 1.5-.77 2.13s-.47 2.5-.83 4.15c-.4 1.78-.23 3.3.4 3.7.57.35 1.05 1.35 1.05 2.2 0 1.34-.24 1.37-1.65.2-1.47-1.22-1.56-1.1-.92 1.13 1.08 3.73 1.63 6.68.98 5.25-.97-2.1-2.6-1.38-1.88.84.47 1.5.05 2.5-1.5 3.6-1.9 1.32-1.98 1.7-.75 3.15 2.88 3.37 3.02 4.27.55 3.66-1.85-.44-2.6 0-3.58 2.17-1.54 3.36-1.62 7.57-.17 9.02.6.58.9 2.14.66 3.44-.4 2.15-.5 2.08-1.2-.82-.42-1.75-1.42-3.44-2.23-3.75-2.33-.9-5.14 1.2-5.6 4.18-.22 1.52-.53 2.08-.68 1.25zm15.97-40.56c0-.8-.45-1.44-1-1.44s-1 .93-1 2.06.45 1.78 1 1.44 1-1.26 1-2.06zm2.46-13.2c.42-2.5.33-4.24-.24-4.24-.88 0-2.3 7.2-2.16 10.9.1 2.44 1.54-1.55 2.4-6.65zm155.8 43.4c3.2-2.75 3.27-3.27 1.17-7.48-1.67-3.35-2.9-3.95-3.86-1.9-.33.68-.4-.44-.15-2.5.28-2.35-.06-4.25-.9-5.1-.76-.74-1.52-2.66-1.7-4.25-.24-2.08-.84-2.85-2.15-2.75-1.23.1-1.63-.33-1.25-1.33.3-.8.57-2.12.57-2.9s.67-1.42 1.5-1.42c1.56 0 1.98-1.18.83-2.33-.37-.37-1.56.12-2.65 1.08-1.93 1.7-1.96 1.68-1.3-1.1.7-2.8-1.6-12.05-3.5-14.1-.5-.52-.88-2.06-.88-3.43 0-3.07-3-14.27-4.15-15.57-.5-.57-.86-.37-.87.5-.03 1.5-3.92 7.07-3.96 5.67 0-.43.66-2.4 1.5-4.4 2.26-5.42 1.97-18.92-.53-24.82-.45-1.1-1.1-4.25-1.42-7-1.48-12.64-2.33-15.74-4.86-17.7-2.3-1.77-12.3-4.22-21.7-5.32-3.03-.35-8.43-1.34-12-2.2-3.58-.85-7.85-1.7-9.5-1.87s-4.2-.6-5.7-.96c-1.94-.47-3.57-.02-5.83 1.6-2.75 1.94-2.97 2.4-1.7 3.67.8.8 3.3 1.7 5.58 2s4.14.9 4.14 1.32-1.9 1.67-4.25 2.77l-4.25 2 4 .72c5.1.9 8.1 2.76 12.7 7.88 4.24 4.7 5.02 6.16 7.2 13.3 1.8 5.84 2.23 25.2.62 28.07-.53.95-2.1 4.55-3.5 8-3.06 7.5-4.22 8.96-12.2 15.26-3.38 2.68-6.45 5.8-6.8 6.95-.66 2.02-.76 2-4.35-.74-2.03-1.54-5.43-3.7-7.56-4.77-12.4-6.28-20.58-21.84-20.6-39.17-.03-17.92 4.88-27.6 16.7-32.9 2.33-1.04 4.24-2.2 4.25-2.6s-1.67-.82-3.73-1-3.75-.7-3.75-1.22 1.95-1.95 4.34-3.2c2.68-1.43 3.87-1.74 3.1-.82-1.63 1.98-.73 2.74 1.4 1.18 1.56-1.14 1.45-1.52-1.3-4.53-2.45-2.67-3.36-3.1-4.9-2.28-1.02.55-3.4 1.26-5.25 1.57s-4.5.96-5.88 1.47-6.1 1.64-10.5 2.53c-21.06 4.22-25.43 5.52-26.75 7.9-.65 1.15-1.1 2.37-1.02 2.7s-.45 4.58-1.2 9.5c-1.57 10.3-1.3 28.13.53 34.22 1.38 4.6.82 6.16-1.52 4.2-1.57-1.3-1.65-1.2-2.77 2.9-.22.77-1.1 1.5-1.96 1.64-1.34.2-1.57-1.18-1.53-9.24.04-6.1.37-8.9.95-7.87.5.88 1.04 2.82 1.22 4.32s.37 3.07.44 3.48 1.05.75 2.2.75c1.68 0 1.92-.4 1.34-2.25-.93-2.93-1.14-4.93-1.3-12.58-.1-4.58-.47-6.22-1.37-5.92-.7.23-1.32 1.8-1.4 3.5s-.65 3.93-1.24 4.93c-1.2 2.02-1.07.15.92-13.68 2.38-16.57 4.16-22.8 7.4-25.9 5.45-5.18 14.04-7.98 28.3-9.18 9.7-.83 13.56-1.57 16.07-3.1 1.8-1.13 3.12-2.55 2.9-3.18-.4-1.22-6.67-2.44-13.2-2.57-4.03-.08-14.46-3.74-24.36-8.57-2.95-1.43-6.26-2.47-7.36-2.3-1.58.24-6.14 6.37-6.56 8.8-.04.28-.6 1.85-1.23 3.5s-1.2 3.8-1.27 4.75-.5 1.75-.92 1.75-.78.6-.78 1.34-1.33 5.32-2.95 10.18-2.66 9.3-2.32 9.86.76 2.4.9 4.08c.24 2.84.2 2.9-.7.68-.8-1.96-1.2-2.15-2.44-1.13-.8.7-1.48 1.9-1.48 2.7s-1.37 5.34-3.04 10.07-2.8 9.2-2.53 9.92-.15 1.3-.96 1.3c-1.02 0-1.48 1.1-1.48 3.5 0 1.93-.5 3.5-1.13 3.5-.72 0-.9 1.1-.54 2.96.47 2.33.28 2.84-.87 2.4s-1.48.4-1.48 4.04c0 3.6-.36 4.6-1.63 4.6-1.32 0-1.53.7-1.08 3.48l.57 3.48-2.47-1.6c-2.27-1.5-2.6-1.5-4.27 0-1 .9-2.3 1.64-2.94 1.64-1.94 0-.32-2.4 2.8-4.2 3.3-1.88 3.98-5.15 1.38-6.6-1.35-.76-1.1-1.1 1.5-2 1.8-.63 3.12-1.8 3.12-2.75 0-1.07-.54-1.45-1.5-1.08-2.38.9-1.75-.6 1.25-3 3.15-2.5 2.56-4.08-.92-2.4l-2.33 1.15 2.13-1.8c1.17-1 2.97-2.36 4-3 1.6-1.04 1.66-1.36.4-2.2-1.28-.88-1.26-1.1.13-1.62.88-.34 2.38-3.18 3.32-6.3s2.53-8.17 3.54-11.2c1-3.02 2.32-7.97 2.93-11 2.1-10.4 10.88-31.98 16.03-39.47 3.04-4.42 3.24-4.53 8.5-4.53 5.45 0 6.44.4 23 9.47 4.08 2.23 5.74 2.6 9 2.07 2.2-.36 4.92-.8 6.02-.94 1.33-.18 2.04-1.08 2.1-2.68.2-4.28 2.16-7.64 4.83-8.3 1.4-.36 2.57-1.1 2.57-1.64 0-1.26-1.32-1.25-2.6.02-1.44 1.44-7.6-1.96-12.6-6.95-5.14-5.15-14.8-17.96-14.8-19.64 0-.67-.37-1.38-.8-1.56-.7-.28-3.1-5.02-9.4-18.46-.7-1.45-.65-2.78.1-4.2 1.24-2.3 1.5-4.33.3-2.48-.5.8-2.4-.88-5.68-5L47.2 56.83c-2.87-3.62-6-6.45-7.54-6.86-2.24-.6-2.37-.8-.83-1.36 1.48-.54.02-2.38-8.2-10.3-8.1-7.78-10.46-9.54-12.3-9.13-1.7.37-1.94.25-.93-.47 1.75-1.24.6-3.2-1.9-3.2-1.3 0-1.73-.5-1.34-1.5.43-1.1-.16-1.5-2.28-1.5-2.25-.02-2.54-.24-1.36-1.03 2.34-1.57-1.5-3.97-6.36-3.97-4.66 0-4.25-1.1.55-1.47 3.03-.24 3.35-.57 3.63-3.9.2-2.4.8-3.63 1.78-3.63 1.16 0 1.26.44.47 1.9-1.32 2.47 2.3 7.5 3.8 5.27.66-1 1.03-.77 1.5 1 .53 1.9.83 2.06 1.6.87.75-1.18 1.14-.92 2 1.3.57 1.54 1.05 3.2 1.05 3.73s.67.93 1.5.93 1.5.7 1.5 1.54.8 1.82 1.75 2.18c2.52.95 4.25 3.52 3.67 5.45-.28.92.04 2 .7 2.4.85.53 1.02.24.56-.96-.92-2.37 6 2.67 9.3 6.8 2.7 3.4 1.04 2.5-4.23-2.28-4.55-4.12-3.1-1.38 1.8 3.37 2.6 2.52 5.13 4.18 5.93 3.87.77-.3 2.52.73 3.9 2.3l5.07 5.73c1.4 1.6 4.86 6.77 7.67 11.5s5.62 9.05 6.25 9.6c2.4 2.13 4.9 8.64 4.98 12.95.04 2.7.6 4.7 1.36 5 .7.27 1.28 1.12 1.28 1.9 0 1.78 3.93 6.8 4.88 6.23.4-.24 1.76 1.76 3.04 4.46 3.22 6.78 9.7 13.73 11.32 12.12.95-.94.94-1.64-.03-3.2-1.82-2.9-1.3-14.4.86-18.87 1-2.07 3.6-5.38 5.8-7.36 2.92-2.65 3.83-4.14 3.43-5.67-.66-2.5-1.2-2.58-2.8-.42-1.73 2.37-7.84 1.02-10.47-2.32-3.66-4.65-2.2-12.2 2.94-15.12 1.66-.93 3-1.97 3-2.3s-3.24-3.15-7.23-6.26c-11.78-9.17-14.75-11.78-14.78-13C73.3 36 54.7 15.73 42.67 9.6c-4.98-2.56-5-4.73-.05-4.3 6.03.5 22.86 13.5 23.16 17.88.07 1.2.44 2 .8 1.77 1.1-.68 2.92 2.03 7.5 11.17 3.62 7.2 5.06 9.04 9.1 11.6 5.1 3.24 13.35 9.64 14.52 11.26.38.54 1.02.12 1.43-.96.98-2.55 5.45-6.44 7.44-6.48.86-.02 2.6 1.07 3.9 2.43l2.3 2.47 3.73-2.94c4.9-3.88 13.3-9.52 15.37-10.3.9-.36 2.1-1.9 2.63-3.42s1.42-3.45 1.94-4.28 1.96-3.52 3.2-6 2.83-5.1 3.55-5.82 1.3-1.77 1.3-2.32 2.1-3.2 4.66-5.92c3.63-3.83 4.95-4.67 6-3.8.98.8 1.34.8 1.34 0 0-.63-.45-1.14-1-1.14-3.95 0 7.54-8.55 12.94-9.63 5.1-1.03 3.74 2.14-2.7 6.2-3.15 2.02-8.1 6.08-11 9.05s-5.67 5.38-6.14 5.38-1.13.8-1.45 1.75-2.16 4.45-4.1 7.75-4.2 7.57-5.08 9.5c-1.68 3.7-5.27 8-6.7 8-.72 0-5.84 3.6-13.7 9.64-1.27.97-1 1.55 1.73 3.86 3.98 3.35 5.38 5.87 5.94 10.7.58 5.04-2.92 8.36-9.8 9.3-2.72.4-4.95 1-4.95 1.4 0 .68 1.2 1.97 5.77 6.3 4.04 3.83 6.87 19.04 4.76 25.68-.46 1.43-.25 2.12.64 2.1 1.84 0 3.1-1.04 5.1-4.2.95-1.5 2.3-2.5 3.03-2.2 3.64 1.4 19.07-29.48 15.75-31.54-.7-.43.15-3.1 2.4-7.6 3.55-7.1 4.7-8.13 2.1-1.9-.8 1.9-1.07 3.46-.6 3.46 1.23 0 4.56-9.08 4.23-11.5-.2-1.42-.02-1.62.6-.7 1.06 1.54 1.28 1.3 6.65-6.7 3.84-5.7 4.18-7.74.67-3.97-1.16 1.24-2.1 1.75-2.1 1.15 0-1.1 7.18-7.28 8.47-7.28 1.97 0 14.47-15.17 12.9-15.7-.6-.2-.88-1.47-.62-2.82s.8-2.24 1.23-1.98c1.13.7 6.32-7.2 5.56-8.44-.36-.58-.18-1.06.4-1.06.97 0 1.47 1.4 1.18 3.25-.07.42.55.75 1.38.75.82 0 1.5-.45 1.5-1s-.4-1-.86-1c-1.74 0 .1-4.55 2.57-6.4 2.4-1.78 2.5-1.78 1.53-.06-1.1 1.98.45 4.38 2.94 4.55.72.04-.18.52-2.02 1.05-2.33.67-3.17 1.4-2.77 2.44.37.93-.33 1.88-1.93 2.6-1.37.63-2.34 1.63-2.15 2.2s-1.5 2.88-3.8 5.1-6.58 6.93-9.56 10.5c-3 3.58-5.83 6.8-6.3 7.14s-.6 1.14-.2 1.76 0 1.38-.85 1.7-2.83 2.7-4.42 5.3-3.5 5.36-4.27 6.2c-1.93 2.08-3.67 4.86-5.4 8.6-.8 1.74-1.84 3.4-2.32 3.7s-1.65 3.14-2.6 6.32c-2.37 7.86-4.76 14.58-5.6 15.78-.4.55-1.06 2.12-1.48 3.5-1.75 5.68-11.45 18-14.18 18-.8 0-1.3 1.3-1.3 3.43 0 2.5-.7 3.98-2.64 5.5-1.44 1.14-3.22 2.07-3.94 2.07-2.1 0-2.6 1.78-1.25 4.23.68 1.25 1.26 2.72 1.28 3.27s2.06 1.25 4.54 1.55 5.4 1.13 6.5 1.83c2.06 1.33 4.7.34 19.5-7.3 2.47-1.3 6.86-3.3 9.75-4.5 4.88-1.98 5.45-2.02 8.27-.57 3.92 2.04 7.46 7.03 13.22 18.6 7.58 15.28 8.93 18.85 8.26 21.92-.34 1.54-.18 3.06.35 3.4s1.27 2.35 1.63 4.5 1.3 4.73 2.06 5.74 1.4 2.64 1.43 3.6.47 2.55 1.02 3.5 1.44 2.98 1.97 4.5c.55 1.55 1.72 2.74 2.7 2.74 1.34 0 1.45.27.52 1.2-1.88 1.88-1.45 2.8 2.05 4.3 1.87.83 2.5 1.44 1.5 1.47-2.18.04-2.3 2.88-.17 3.7 1.25.48 1.3.78.3 1.42-.95.56-.57 1.07 1.35 1.8 2.4.9 2.57 1.32 1.78 4.06-.52 1.84-.5 3.04.06 3.04.5 0 .92.63.92 1.4 0 1.92 2.76 2.8 5 1.6 2.64-1.4 4-1.24 4 .5 0 .9-1 1.55-2.5 1.63-1.38.07-2.95.24-3.5.37s-1.34.3-1.76.38-1.35 1.47-2.08 3.12-1.77 3-2.3 3-.27-1 .58-2.22c1.65-2.35 2.06-5.4.8-5.94-.4-.2-1.46-1.7-2.33-3.34s-2.12-2.88-2.75-2.75c-.68.15-1.16-1-1.16-2.8 0-1.8.42-2.8 1-2.45.55.34 1 .15 1-.44 0-2.1-3.22-.66-4.36 1.94-.36.83-.42-.4-.14-2.75.42-3.42.22-4.25-1.06-4.25-1.12 0-1.4-.57-.94-2 .4-1.3.12-2.2-.8-2.56-.8-.3-1.7-2.5-2.05-4.97-.33-2.43-1.02-5.22-1.53-6.2-1.2-2.32-3.83-9.15-4.65-12.1-.45-1.54-1.17-2.12-2.18-1.73-1.1.42-1.35.13-.9-1.05.67-1.74-3.08-14.08-4.55-15-.47-.28-.85-1.16-.85-1.95s-1.35-4.3-3-7.8-3-6.7-3-7.14-1.24-2.74-2.75-5.14c-3.5-5.55-5.17-5.55-14.56 0-4.04 2.4-9.34 5.1-11.77 6.02-5.5 2.08-17.98 4.7-19.1 4-.8-.5-4.42 2.44-3.68 3 1.68 1.26 8.1 3.62 9.83 3.62 1.2 0 1.88.45 1.54 1s.1 1 1 1 2.35.7 3.22 1.58c.98.98 1.8 1.2 2.2.55.42-.67 2.05-.7 4.84-.07 2.32.52 7.03 1.36 10.48 1.86s7.12 1.25 8.17 1.67c1.35.52 1.7.4 1.2-.43-1.75-2.82 2.04-.78 6.14 3.32 3.9 3.9 4.42 4.9 4 7.74-.5 3.24.6 11.52 2.3 17.26.48 1.65 1.14 5.7 1.45 9 1.04 10.9 2.13 14.7 3.56 12.4.52-.84.8-.2.73 1.75-.04 1.7.2 3.5.53 4.04s.86 2.5 1.2 4.4c.9 5.3 5.86 20.32 6.98 21.14.57.4.64.74.17.75s.1 1.6 1.26 3.58 1.87 3.96 1.58 4.43-.06 1.15.5 1.5 1.02 1.67 1.02 2.94.65 2.86 1.44 3.5 1.2 1.82.92 2.58.4 2.16 1.53 3.13c1.2 1.02 1.66 2.02 1.08 2.38-.64.4-.45 1.95.53 4.3 1.18 2.8 2.13 3.67 3.95 3.67 3.27 0 5.68 1.02 5 2.1-.3.5-2.2.65-4.24.34-3.33-.5-3.84-.27-5.38 2.5-1.14 2.04-2.48 3.06-4 3.06-2.27 0-2.27-.03.45-2.36zM114.5 242c0-2.86-.7-3.04-3.5-.92-1.7 1.3-1.78 1.64-.5 2.45 2.57 1.62 4 1.07 4-1.53zm74.57-2.98c-.67-1.9-1.52-3.8-1.9-4.16-1-1.02-.83 2.13.3 5.08 1.48 3.9 2.95 3.06 1.6-.92zM104.7 231c-.42-3.64-.06-3.9 4.57-3.54 3.52.3 2.63-1.8-1-2.36-6.83-1.03-15.75-1.53-17.22-.97-2.9 1.1-1.52 2.46 2.22 2.17 3.23-.26 3.8 0 4.07 1.95.17 1.24.7 2.25 1.16 2.25s.64-1 .4-2.25.2-.67.97 1.25c1.34 3.37 1.4 3.4 1.87 1 .45-2.37.5-2.34 1.25.75 1.03 4.34 2.22 4.16 1.7-.25zm8.48 2.76c-.67-1.1-6.66-1.52-6.66-.48 0 .45 1.6.92 3.58 1.06s3.36-.13 3.08-.58zm73.84-1.26c-.34-.55-.82-1-1.06-1s-.44.45-.44 1 .48 1 1.06 1 .78-.45.44-1zm-55.5-8.06c0-.58-.45-.78-1-.44s-1 .82-1 1.06.45.44 1 .44 1-.47 1-1.06zm-19.66-2.93c2.43.07 3.6-.3 3.2-.95-.37-.58-1.3-1.05-2.1-1.05-1 0-1.32-.9-1.1-3.1.37-3.23 2.13-5.03 4.18-4.25.77.3 1.12-.38.97-1.84-.33-3.35-.53-3.52-1.48-1.3-.76 1.78-.87 1.7-.93-.75-.05-1.5-.5-2.75-1-2.75s-1.14 1.24-1.36 2.75l-.42 2.75-.15-2.75c-.08-1.5-.65-2.75-1.27-2.75s-.9.85-.62 1.9.1 2.5-.37 3.24c-.6.96-.85.56-.87-1.35 0-3.43-1.83-4.38-9.9-5.22-3.53-.37-7.2-1.1-8.2-1.62-2.7-1.44-4.9-1.15-4.9.65 0 1.03.54 1.4 1.5 1.04 1.17-.45 1.5.33 1.6 3.65.07 2.3.05 4.77-.04 5.45s.33 1.25.93 1.25.83.46.48 1 .1 1.74.98 2.6c1.35 1.36 1.85 1.4 3.25.25 1.44-1.17 1.58-1.12 1.03.34-.83 2.2 3.38 3.74 8.76 3.16 2.2-.23 5.73-.4 7.84-.35zm-12.1-4c0-1.92.2-2.7.45-1.75s.26 2.54 0 3.5-.45.18-.45-1.75zm7.76 1c0-.55.7-1 1.56-1s1.28.45.94 1-1.04 1-1.56 1-.94-.45-.94-1zm-15.92-5.4c-.05-1.07.2-1.66.52-1.33s.37 1.2.08 1.92c-.32.8-.55.55-.6-.6zm33.92 8.4c0-.55-.45-1-1-1s-1 .45-1 1 .45 1 1 1 1-.45 1-1zm-4-4.03c0-1.2-2.82-2.48-3.64-1.66-.88.9.6 2.7 2.2 2.7.8 0 1.44-.46 1.44-1.03zm11.5-.97c.34-.55-.3-1-1.44-1s-2.06.45-2.06 1 .65 1 1.44 1 1.72-.45 2.06-1zm-45.9-6.74c-1.1-1.08-1.66.43-.9 2.35.7 1.8.76 1.82 1.1.08.2-1 .1-2.1-.2-2.42zm39.4 1.74c0-.55-.45-1-1-1s-1 .45-1 1 .45 1 1 1 1-.45 1-1zm0-9c0-.55-.48-1-1.06-1s-.78.45-.44 1 .82 1 1.06 1 .44-.45.44-1zm-23-1.25c.03-.92.26-.9.9.1.63 1.02 1.34 1.1 2.82.3 1.42-.76 2.3-.73 3.13.1.87.87 1.15.74 1.15-.55 0-.93.45-1.7 1-1.7s1 .45 1 1 .9 1 2 1 2-.45 2-1-.68-1-1.5-1c-1.37 0-2.15-4.32-1.58-8.75.1-.68-.47-1.25-1.24-1.25-1 0-1.26.82-.9 2.75.27 1.52.22 2.5-.1 2.2-1.1-1-1.66-8.84-.67-9.46.55-.34 1 .1 1 .94s.44 1.56 1 1.56 1-.9 1-2-.65-2-1.43-2-2.13-.27-3-.6c-1.22-.47-1.46-.17-1 1.24.5 1.54.42 1.6-.47.36-1.77-2.46-1.32-5 .9-5 1.1 0 2-.45 2-1s-1.1-1-2.43-1c-1.88 0-2.57-.67-3.08-3-.7-3.13-1.92-3.87-2.92-1.75-.46 1-.7 1-1.16 0-1.3-2.76-2.52-1.02-2.12 3 .23 2.34.23 3.24 0 2-.54-2.78-2.3-2.98-2.3-.25 0 1.1-.45 2-1 2s-1 1.14-1 2.54c0 2.23-.24 2.4-2.02 1.45-2.77-1.5-3.98-.47-3.98 3.36 0 1.8-.48 3.72-1.06 4.3-1.87 1.87-1.45 7.48.65 8.72 3.74 2.2 14.4 3.22 14.43 1.37zm8.64-4.25c-.32-.82-.14-1.5.4-1.5s.96.68.96 1.5-.18 1.5-.4 1.5-.65-.67-.96-1.5zm-3.64-1.56c0-.58-.4-.8-.9-.5-.97.6-2.48-2.4-1.62-3.25.28-.3.52 0 .52.64s.42 1.16.94 1.16 1.1-1.68 1.33-3.75c.3-3.08.4-2.82.55 1.5.1 2.9-.06 5.25-.33 5.25-.28 0-.5-.47-.5-1.06zm14 6.06c0-.55-.45-1-1-1s-1 .45-1 1 .45 1 1 1 1-.45 1-1zM28.5 191.2c0-.45-.43-.54-.98-.2s-1 1.38-1 2.3c.03 1.47.16 1.5 1 .2.53-.82.98-1.86.98-2.3zm17.12 1.8c.16-2.35.12-6.42-.07-7.25-.33-1.47-1.9 3.3-1.96 6-.08 2.8 1.84 4 2.02 1.25zm79.9-2.5c0-.55-.7-1-1.56-1s-1.28.45-.94 1 1.04 1 1.56 1 .94-.45.94-1zm-12.44-15.33c1.65.63 1.97-1.22.4-2.2-1.4-.86-4.1 1.48-3.27 2.85.5.77.8.75 1.07-.06.2-.63 1.02-.9 1.8-.6zm13.44.33c0-.55-.48-1-1.06-1s-.78.45-.44 1 .82 1 1.06 1 .44-.45.44-1zm-91.03-5.44c1.1-2.45 2.02-4.95 2.02-5.56 0-1.78 3.2-11.4 4.14-12.45.47-.52.86-2.1.85-3.5 0-2.54 0-2.54-1.6.45-4.7 8.86-9.86 25.5-7.9 25.5.26 0 1.38-2 2.5-4.44zm86.02 2.44c0-.55-.48-1-1.06-1s-.78.45-.44 1 .82 1 1.06 1 .44-.45.44-1zm69-1c0-.55-.7-1-1.56-1s-1.28.45-.94 1 1.04 1 1.56 1 .94-.45.94-1zm-73.5-1c-1.1-.47-3.13-.84-4.5-.83l-2.5.03 2.5.8c1.37.44 3.4.82 4.5.83 2 .03 2 .03 0-.83zm-8.5-1c0-.55-.65-1-1.44-1s-1.72.45-2.06 1 .3 1 1.44 1 2.06-.45 2.06-1zm79.95-7.1c-1.16-2.16-3.95-1.45-3.95 1 0 .94.56 2.26 1.24 2.94 1.82 1.82 4.05-1.42 2.7-3.94zm-132.54 1.25c.6-.95 8.18-2.57 19.6-4.16 8.8-1.24 11-1.83 11-2.97 0-1.65-22 1.5-27.63 3.95-4 1.74-6.54 4.02-4.5 4.02.55 0 1.24-.38 1.53-.85zm58.6-.15c0-.55-.7-1-1.57-1s-1.28.45-.94 1 1.04 1 1.56 1 .94-.45.94-1zm71.63-6.3c-1.13-4.48-8.26-18.56-10.7-21.1-1.25-1.32 2.57 8.47 5 12.77 1.1 1.98 1.8 4.18 1.5 4.9-.5 1.35 2.45 5.7 3.92 5.72.47 0 .6-1.04.28-2.3zm-74.64-2.26c0-.24-.45-.44-1-.44s-1 .48-1 1.06.45.78 1 .44 1-.8 1-1.06zm-14-1.44c0-.55-.45-1-1-1s-1 .45-1 1 .45 1 1 1 1-.45 1-1zm29-.87c0-.5-.64-1.4-1.4-2.05-1.58-1.3-3.18.17-2.1 1.92.76 1.24 3.5 1.33 3.5.13zm-8.48-9.5c.76-.77 1.18-1.6.93-1.84s-.7-2.67-1.03-5.37c-.65-5.5-1.78-6.73-5.42-5.9-9.12 2.07-10 2.16-10.02 1.1-.06-3.07-3.94 4.35-3.96 7.56-.04 6.55 3.85 5.9 4.03-.7.08-2.58.2-2.72.95-1 .76 1.76.87 1.67.93-.8.04-1.55.46-2.57.95-2.27s2.28-.16 3.98-1 3.55-1.3 4.08-.96 1.27 3.28 1.64 6.56.88 5.97 1.12 5.97 1.06-.62 1.82-1.38zM76.52 143c0-1.78-9.67-8.17-10.74-7.1-.33.34-1.4-.12-2.4-1-2-1.82-12.05-3.36-10.36-1.6.55.57 2.48 1.26 4.3 1.54 3.08.47 14.57 5.83 16.65 7.78 1.03.96 2.55 1.2 2.55.38zm17-.5c0-.55-.45-1-1-1s-1 .45-1 1 .45 1 1 1 1-.45 1-1zm55.9-6.5c3.9-1.94 7.1-3.97 7.1-4.5s1.1-1 2.44-1c2.66 0 4.2-1.48 2.58-2.48-1.4-.86-17.98 7.57-19.15 9.73-1.25 2.32-1.22 2.3 7-1.76zm-28.9-12.5c0-.55-.48-1-1.06-1s-.78.45-.44 1 .82 1 1.06 1 .44-.45.44-1zm4.67-2.66c-.8-.78-3.65.9-3.1 1.82.36.56 1.18.46 2.03-.25.8-.65 1.27-1.35 1.06-1.56zm-32.68.66c0-.55-.7-1-1.56-1s-1.28.45-.94 1 1.04 1 1.56 1 .94-.45.94-1zm23-2c0-1.1-.67-2-1.5-2s-1.5.2-1.5.42-.27 1.13-.6 2c-.44 1.14-.02 1.58 1.5 1.58 1.43 0 2.1-.63 2.1-2zm-9.2-6.2c.82-.82 1.2-.85 1.2-.1 0 .82.96.82 3.54.03 3.4-1.04 3.47-1.16 1.75-2.86-.97-.97-3.28-2.03-5.12-2.35-2.77-.48-3.42-.23-3.86 1.45-.3 1.12-1 2.03-1.54 2.03-.57 0-.46.66.24 1.5 1.5 1.82 2.23 1.87 3.8.3zm-9.2-2.53c-1-1-1.85.52-1.02 1.87.63 1.02.87 1.02 1.2 0 .24-.7.16-1.53-.18-1.87zm20.85-4.42c-.2-1.7-.7-3.4-1.07-3.73s-.43.4-.12 1.64.14 2-.35 1.7-.9-1.2-.9-1.98c0-.85-.6-1.18-1.5-.84-1.04.4-1.5-.06-1.5-1.45 0-1.12-.28-2.86-.6-3.86-.5-1.53-.42-1.58.48-.34.93 1.3 1.1 1.24 1.1-.34 0-1-1-2.68-2.23-3.7s-1.7-1.9-1-1.92 1.25.4 1.25.96.67 1 1.5 1c.92 0 1.5.94 1.5 2.44 0 1.35.45 2.72 1 3.06s1-.2 1-1.2c.03-1.5.2-1.55.96-.33 1.47 2.33 2.34.46 1-2.13-1.98-3.8-4.06-5.74-5.55-5.16-.84.32-1.4-.1-1.4-1 0-.85-.94-1.84-2.08-2.2-2.6-.82-8.2 1.4-7.58 3 .62 1.6-2.9 3.64-4.93 2.86-1.35-.52-1.52-.22-.93 1.64.5 1.55.38 2.06-.37 1.6-.6-.4-1.1-.24-1.1.32 0 1.6 2.24 6.1 3.03 6.1.4 0 .97.94 1.27 2.08.45 1.72.88 1.9 2.52 1 2.34-1.24 12.17-1.2 12.17.05 0 .48.67.87 1.5.87.85 0 1.5.9 1.5 2.06 0 1.14.42 1.8.92 1.5s.75-2 .53-3.7zm-17.37-4.26c-.05-1.07.2-1.66.52-1.33s.37 1.2.08 1.92c-.32.8-.55.55-.6-.6zm1.92-1.1c0-1.7.46-2.5 1.25-2.25.7.23 1.25 1.25 1.25 2.25s-.56 2.02-1.25 2.25c-.8.27-1.25-.56-1.25-2.25zm7.12-1.16c-.07-.65-.4-2-.77-3-.5-1.43-.37-1.58.6-.7.68.64 1.02 2 .76 3s-.53 1.34-.6.7zm10.57 2.9c-.24-.95-.45-.16-.45 1.76s.2 2.72.46 1.75.26-2.53 0-3.5zm-41.56.5c-.98-.98-1.1-.87-.56.56.38.98.94 1.54 1.25 1.23s0-1.1-.7-1.8zM99.52 91.5c0-.55-.45-1-1-1s-1 .45-1 1 .45 1 1 1 1-.45 1-1zM66.88 81c-.32-.82-.75-1.5-.97-1.5s-.38.68-.38 1.5.43 1.5.97 1.5.7-.67.38-1.5zm42.64-2.53c0-.53-1.13-.97-2.5-.97-2.72 0-2.8.1-1.9 2.4.46 1.2 1.04 1.33 2.5.55 1.04-.56 1.9-1.45 1.9-1.98zm6.45 1.1c.67-1.07-3.28-2.57-4.25-1.6-.35.35.02 1.06.83 1.57 1.87 1.2 2.7 1.2 3.42.04zM93.02 78.5c-.34-.55-.82-1-1.06-1s-.44.45-.44 1 .48 1 1.06 1 .78-.45.44-1zm10.75-5.22c1.45-1.65 1.75-1.72 1.75-.4 0 .9.45 1.62 1 1.62s1-.7 1-1.53c0-1.3.35-1.34 2.25-.3 1.24.7 2.85 1.13 3.6.98s1.94.54 2.67 1.54c1.08 1.44 1.6 1.56 2.6.55 1.03-1 .95-1.25-.42-1.25-.94 0-1.7-.37-1.7-.82s1.35-.63 3-.4c3.8.57 3.82-.72.04-3.26-1.63-1.1-3.1-2.9-3.25-4-.5-3.46-2.23-2.2-3.45 2.48-1.1 4.2-1.18 4.3-1.25 1.25-.07-2.98-.34-3.24-3.33-3.23-1.8 0-3.92.43-4.73.95-1 .64-2.05.4-3.3-.73-1.6-1.43-1.97-1.46-2.77-.2-.5.8-.7 2.06-.44 2.8s-.17 1.97-.97 2.77-1.2 2.1-.9 2.9c.75 1.97 6.35.86 8.6-1.72zm-9.85-2.37c.33-.86.36-1.97.07-2.45-.66-1.04-4.35 2.2-3.76 3.3.7 1.34 3.05.8 3.68-.84zm28.6-2.27c0-1.28-2.94-3.52-3.67-2.8s1.5 3.67 2.8 3.67c.47 0 .87-.4.87-.87zm-19.5-4.13c.34-.55.17-1-.37-1s-1.72-.72-2.6-1.62c-2.3-2.28-3.24-.8-1.04 1.62 2.03 2.23 3.1 2.5 4.02 1zm11.5-4.1c0-.5-.38-.9-.84-.9-.82 0-3.2 4.4-3.13 5.8.05 1 3.97-3.84 3.97-4.9zm-59.5 1.1c-.34-.55-.82-1-1.06-1s-.44.45-.44 1 .48 1 1.06 1 .78-.45.44-1zm51.5-2c0-.55-.68-1-1.5-1s-1.5.45-1.5 1 .67 1 1.5 1 1.5-.45 1.5-1zm-54.5-2c-.34-.55-.82-1-1.06-1s-.44.45-.44 1 .48 1 1.06 1 .78-.45.44-1zm52.3-.93c.26-.75-.1-1.13-.86-.88-.73.23-1.5 1.02-1.75 1.74-.24.75.13 1.13.88.88.72-.24 1.5-1.03 1.75-1.75zM184.3 25.7c.23-.74-.22-.96-1.2-.6-.87.34-1.58 1.06-1.58 1.6 0 1.3 2.27.5 2.77-1zM63 21.5c-.34-.55-.82-1-1.06-1s-.44.45-.44 1 .48 1 1.06 1 .78-.45.44-1zm-4.73-4.98c-1.26-1.02-2.43-1.7-2.6-1.53-.66.65 3.2 4.38 4.02 3.88.46-.3-.18-1.35-1.43-2.36zm121.17 174.26c-.27-2.32-.12-3.84.35-3.38s.7 2.37.5 4.23c-.34 3.3-.36 3.27-.85-.85zm-21.7-34.86c-1.8-.78-3.25-1.62-3.25-1.87 0-.63 6.3 1.56 7.45 2.6 1.38 1.24-.38.94-4.2-.73zm-11.75-3.02l-5-1.37 4.4.52c2.43.3 5.13.95 6 1.46 2.1 1.23.72 1.07-5.4-.6zM76.1 96.93c-.38-1.46-.5-2.86-.25-3.1s.73.78 1.1 2.25.47 2.85.24 3.1-.74-.78-1.1-2.25zm63.43-6.12c0-.43.46-1.47 1-2.3.82-1.3.96-1.26.97.2 0 .92-.43 1.96-.98 2.3s-1 .26-1-.2zm3.55-8.6c.38-.98.94-1.53 1.25-1.22s0 1.1-.7 1.8c-.97.97-1.1.86-.55-.57zM157.52 55c.68-.82 1.47-1.5 1.74-1.5s-.06.68-.74 1.5-1.47 1.5-1.75 1.5.06-.67.75-1.5zm17.5-21.5c1-1.1 2.03-2 2.3-2 .28 0-.3.9-1.3 2s-2.04 2-2.3 2c-.3 0 .3-.9 1.3-2zM196.3 7.87c-.24-2.12-.63-4.48-.86-5.24s.2-1.6.97-1.88c.85-.3 1.13-.07.7.6-1.14 1.87 1.27 5 4.17 5.4l2.75.37-2.98 1.25c-1.64.7-3.27 1.73-3.63 2.32s-.85-.7-1.1-2.83z" fill="#070707"/>
</svg>
