<?xml version="1.0" encoding="UTF-8" standalone="no"?>
<!-- Created with Inkscape (http://www.inkscape.org/) -->
<svg id="svg4186" xmlns:rdf="http://www.w3.org/1999/02/22-rdf-syntax-ns#" xmlns="http://www.w3.org/2000/svg" height="66.835mm" viewBox="0 0 236.81679 236.81649" width="66.835mm" version="1.1" xmlns:cc="http://creativecommons.org/ns#" xmlns:dc="http://purl.org/dc/elements/1.1/">
 <metadata id="metadata4191">
  <rdf:RDF>
   <cc:Work rdf:about="">
    <dc:format>image/svg+xml</dc:format>
    <dc:type rdf:resource="http://purl.org/dc/dcmitype/StillImage"/>
    <dc:title/>
   </cc:Work>
  </rdf:RDF>
 </metadata>
 <g id="layer1" transform="translate(-253.03 -336.82)">
  <g id="g10991" transform="translate(14.311,-263.21)">
   <circle id="path10959" cy="718.43" cx="357.12" r="118.35" fill="#fff"/>
   <path id="circle10735" fill="#387ff5" d="m357.12 600.03a118.41 118.41 0 0 0 -52.396 12.449l55.606 28.775a5.3505 5.3505 0 0 1 2.8183 3.8633l7.4864 44.42c2.9093-0.27091 5.7465-0.36351 8.4882-0.25977 24.648 0.93264 42.223 16.165 47.365 30.549 6.8558 19.179-3.7105 49.944-42.068 63.656s-89.982 5.177-96.838-14.002c-6.4579-18.066 22.657-57.186 58.117-73.127l-9.8867-24.102-76.672-20.107a118.41 118.41 0 0 0 -20.426 66.291 118.41 118.41 0 0 0 118.41 118.41 118.41 118.41 0 0 0 89.418 -40.898 39.422 30.52 0 0 1 -23.492 -27.895 39.422 30.52 0 0 1 39.422 -30.52 39.422 30.52 0 0 1 11.176 1.2695 118.41 118.41 0 0 0 1.8828 -20.363 118.41 118.41 0 0 0 -118.41 -118.41zm-63.539 18.73a118.41 118.41 0 0 0 -27.514 24.141l75.037 19.68a5.3505 5.3505 0 0 1 3.5937 3.1426l11.004 26.824c1.4769-0.45737 2.9346-0.85327 4.3809-1.2109l-7.043-41.807-59.459-30.77zm72.358 79.572c-1.8794 0.0853-3.7342 0.33026-5.5528 0.7207s-3.6003 0.92568-5.3379 1.5898c-1.7376 0.66417-3.43 1.4588-5.0664 2.3652-1.6363 0.90646-3.2175 1.9257-4.7324 3.043s-2.9628 2.3322-4.3359 3.6289c-1.3732 1.2967-2.6717 2.6745-3.8829 4.1191-1.2111 1.4447-2.3362 2.9564-3.3652 4.5176-1.0289 1.5612-1.9606 3.1721-2.7871 4.8184-0.4923 0.90238-0.8048 1.9024-0.9258 2.9121s-0.0515 2.0294 0.2168 2.9707c0.2684 0.94128 0.7363 1.8049 1.4121 2.502 0.6758 0.697 1.5608 1.227 2.6621 1.5039 1.4025 0.64197 2.8325 1.1902 4.2852 1.6484 1.4527 0.45818 2.9267 0.82746 4.416 1.1133 2.9787 0.57167 6.0174 0.80876 9.0606 0.75976 3.0431-0.049 6.0915-0.38485 9.0898-0.96289 2.9983-0.57805 5.9467-1.3986 8.791-2.4141 2.2252-0.84429 4.4361-2.0438 6.4629-3.5293 1.0134-0.74276 1.9811-1.5574 2.8809-2.4336 0.8997-0.87622 1.7331-1.8148 2.4765-2.8066 0.7435-0.99179 1.397-2.0375 1.9414-3.127 0.5445-1.0895 0.9786-2.2233 1.2813-3.3926 0.3027-1.1692 0.4739-2.3724 0.4922-3.6035s-0.1151-2.4886-0.4239-3.7637c-0.3087-0.98376-0.717-1.9123-1.2089-2.7832-0.492-0.87092-1.0683-1.6843-1.7149-2.4395-0.6466-0.75519-1.364-1.4532-2.1367-2.0898-0.7727-0.63658-1.6005-1.2114-2.4707-1.7266-1.7405-1.0302-3.6482-1.8147-5.6074-2.3418-1.9593-0.52709-3.9704-0.79785-5.9199-0.79883z"/>
  </g>
 </g>
</svg>
